<?xml version="1.0" encoding="UTF-8"?>
<svg id="Layer_1" xmlns="http://www.w3.org/2000/svg" version="1.1" viewBox="0 0 1024 1024">
  <!-- Generator: Adobe Illustrator 29.6.1, SVG Export Plug-In . SVG Version: 2.1.1 Build 9)  -->
  <defs>
    <style>
      .st0 {
        fill: #fdfdfe;
      }

      .st1 {
        fill: #96e3e3;
      }

      .st2 {
        fill: #3446a6;
      }

      .st3 {
        fill: #c1c8e2;
      }

      .st4 {
        fill: #169fc2;
      }

      .st5 {
        fill: #1980b9;
      }

      .st6 {
        fill: #6034a4;
      }

      .st7 {
        fill: #d5b5dd;
      }

      .st8 {
        fill: #2852ac;
      }

      .st9 {
        fill: #f9fafc;
      }

      .st10 {
        fill: #1e68b2;
      }

      .st11 {
        fill: #4156b1;
      }

      .st12 {
        fill: #11c3cc;
      }

      .st13 {
        fill: #d52d86;
      }

      .st14 {
        fill: #4536a2;
      }

      .st15 {
        fill: #fefefe;
      }
    </style>
  </defs>
  <path class="st1" d="M369.76,350.5c-.65.78-1.86.84-2,1,.77-.48,1.39-.66,2-1Z"/>
  <path class="st1" d="M367.76,351.5c-2.95,3.45-4.72,4.59-7,7,2.87-2.81,1.67-3.63,7-7Z"/>
  <path class="st1" d="M374.76,346.5c-2.3,3.03-2.1,2.4-5,4,.33-.39.17-2.09,1.41-3.08,1.47-1.18,2.89-.59,3.59-.92Z"/>
  <path class="st1" d="M359.76,359.5c.33-.33.66-.67,1-1-.33.34-.67.67-1,1Z"/>
  <path class="st1" d="M249.76,527.5c-9.31-137.17,91.99-260.32,230.51-270.99,2.82-.22,18.49,1,18.49-1.51v-27.5h2v27.5c0,.56,1.68,1.53,2.5,1.5,70.26-.38,136.26,33.9,182.5,85l-.5.97c-.42-.25-1.4-1.05-1.5-.97-5.81-7.4-45.67-43.14-52.36-42.08l-21.9,33.4c-1.34,3.49,1.47,3.36,3.26,4.69v1c-1.18-.72-4.5-2.31-5.8-1.76l-21.21,32.75c-2.26.17.08-2.4.01-2.99l19.95-31.41c-.63-2.7-46.42-24.35-48.88-22.55l-10.14,34.41,2.07,1.54c-.64.11-1.45-.13-1.99.01h-2c-.59-.77-.9-1.95-1-2,2.68.57,1.97-1.34,2.47-2.98,3.19-10.5,6.11-21.23,8.5-31.95-17.41-5.4-35.77-7.8-53.97-8.07-1.19,11.17,2.07,26.55-.99,37.01-.28.96-.7,1.35-1,2-4.67,1.62-8.34.18-13,0-.32-.58-1.07-1.08-1-2,4.65.06,9.35-.04,14,0v-35.5c0-3.01-17.69-.67-20.38-.38-11.36,1.23-22.62,3.71-33.53,6.97l7.92,33.91c5.62-1.63,11.23-2.91,16.99-4.01.44,1.5-.56,2.1-1,3-2.42-1.13-6.95.35-9.54.96-1.66.39-3.46.29-4.46,2.04-1.2-.78-2.45-2.1-4-2-.36-4.13-7.72-32.42-9.57-32.9-12.27,3.56-24.95,8.53-36.1,14.73-4.14,2.3-14.36,6.2-11.33,11.17-4.95-2.2-6.75.28-11,2.01.18-.21.05-1.42,1.01-2.44,1.83-1.94,6.09-1.82,4.8-4.82l-22.79-34.31c-19.46,10.95-36.18,26.51-51.01,43.07l30.68,28.39c2.6.68,8.55-6.8,10.8-8.94.81-.77,2.27-.74,2.5-.96-.21.23-.18,1.69-.96,2.5-1.96,2.06-9.74,8.28-8.6,10.49,2.88,5.59,19.31,15.43,23.59,21.56,2.13,1.06,4.21-1.68,5.97-2.55-6.14,7.68.14,6.08,3.98,12.51-3.91-.04-5.84-7.6-9.81-5.31l-14.12,19.58c.39,3.86-2.9,3.98-3.06,4.22,1.32-2.25,2.45-5.64,4.06-8.22,2.3-3.66,11-13.59,11.83-16.49.29-1.01.03-1.43-.36-2.27-2.36-5.2-20.14-16.01-24.06-22l-10.04,11.96c-.42.95-2.26.82-2.44,1.02,3.08-5.35,6.24-9.37,9.93-14.36l-31.29-28.56c-3.11.54-20.31,25.7-23.05,30.01s-15.4,24.79-14.66,28.28l38.44,17.72c6.03-11.42,11.91-23.6,20.64-33.08-.21.37.09,1.84-.54,2.92-6.22,10.58-14.09,20.43-18.47,32.06l32.46,14.05c2.03-3.41,3.39-7.32,5.35-10.77.71-1.24,1.98-1.89,2.2-2.26-.18.28,0,1.96-.49,2.96-1.19,2.44-5.71,9.82-4.39,11.91,1.17,1.85,23.15,9.43,26.55,11.97l3.31-1.85c-1.58,5.77,3.79,3.32,6,6.99-3.59-.69-6.25-2.91-9.99-.99.17-.95.38-2.55-.62-3.1l-26.06-11.8-1.36.32c-.7,1.2-1.09,2.47-1.96,3.57.02-1.33.29-3.12-.16-4.3-1.21-3.19-24.75-10.79-28.84-14.28-2.57-1.08-3.61.26-4.78,2.31-4.8,8.43-13.56,37.67-14.22,47.27h-1c.36-1.62-.17-4.05.28-6.21,3.29-16.11,8.31-30.71,14.73-45.77l-38.51-18c-10.76,21.16-16.8,44.57-20.49,67.99-.1.63.09,1.36,0,2-2.61,17.78-4.22,34.86-3,53h-1ZM498.76,258.5c-22.7-.39-45.42,2.93-67.02,9.52l11.11,40.39,55.91-8.41v-41.5ZM500.76,258.5v43c18.66-.37,37.06,3.32,54.97,8l11.97-40.43c-.5-2.39-30.27-7.83-34.59-8.43-4.09-.57-31.21-3.29-32.36-2.14ZM440.67,310.41l-10.93-41.91c-21.65,6.98-43.39,15.29-61.97,28.58l23.67,35.34c8.6-3.63,16.88-9.13,25.64-13.08,7.61-3.44,15.7-6.18,23.59-8.92ZM557.75,310.47c17.52,4.86,33.36,14.28,49.36,21.97l22.5-35.31c-4.87-6.43-57.17-29.61-59.83-27.63l-12.03,40.97Z"/>
  <path class="st1" d="M346.76,445.5l-1-1c.21-.36.72-.64,1-1-.01.65.09,1.38,0,2Z"/>
  <path class="st1" d="M358.76,360.5c.33-.34.67-.67,1-1-.33.33-.65.68-1,1Z"/>
  <path class="st1" d="M378.76,343.5c-.48.59-.69,1.49-1.44,2.06-1.05.79-1.86.62-2.56.94.24-.32-.1-1.78.97-2.53s2.47-.23,3.03-.47Z"/>
  <path class="st1" d="M382.76,340.5c-.48.57-.69,1.49-1.44,2.06-1.04.79-1.79.62-2.56.94.23-.28-.11-1.77.97-2.53s2.43-.23,3.03-.47Z"/>
  <path class="st7" d="M603.76,672.5c.14.13,1.36-.45,2.09.61.84,1.22.5,3.3.91,4.39-2.55-2.24-1.94-2.12-3-5Z"/>
  <path class="st7" d="M723.76,619.5c-15.34,36.94-36.67,65.7-66.96,91.54-42.16,35.96-100.14,58.69-156.04,56.46v29h-2v-27.5c0-.56-1.68-1.53-2.5-1.5-67.15-.21-133.71-31.16-177.5-81v-1c6.66,5.02,11.76,12.01,17.99,17.51,3.86,3.41,23.04,19.09,26.57,19.54,1.84.23,1.68-4.1,3.44-2.04.34.4-1.22,2.35-.54,3.97,1.46,3.52,29.04,17.57,34.19,19.88,3.72,1.66,25.22,10.82,27.26,9.04l13.08-41.89c.78,6-12.76,41.78-10.91,43.92,21.75,6.43,43.96,9.79,66.66,10.88.8.38,2.26-.95,2.26-1.31v-44c0-2.46-12.92-1.3-15.49-1.51-3.49-.29-22.59-2.45-23.51-4.99,12.91,2.31,25.93,3.08,39,4v-37l-30-3.01,8.54-1.03,21.4,1.98,1.06-34.95c-4.75.02-9.68-.43-14.37-1.13-1.58-.24-6.02-.43-6.63-1.85,3.07-1.25,20.25,2.74,20.99,1.99.46-.46-.71-5.02.5-5.01,1.12.69.13,2.87.94,4.07,2.01,3,20.26-.98,24.56-.06-.14.9-.97,1.75-1,2-3.14.53-24-1.33-24,1.5v33.5c3.15,1.38,35.01-4.26,35.01-2.5-11.34,3.68-23.23,3.55-35.01,4.5v37c19.38-.17,38.17-3.96,56.98-8.02-.28-4.37-7.72-33.69-9.08-34.88-1.07-.93-6.39,1.28-6.89-1.09,6.28-2.49,12.9-3.96,19.26-6.25,4.13-1.49,8.82-3.23,12.74-4.76-.19.12-.59,1.08-1.68,1.77-5.8,3.64-15.14,5.65-21.39,8.82l9.12,34.37c2.81,2.44,48.9-18.82,49.82-23.59.11-.55-2.3-5.87-2.86-7.37.15.14,1.23-.28,1.77.19,2.73,2.43-.36,6.5,7.23,4.81-3.48,7.34,7.27,15.85,10.23,22.31.63,1.39.53,3.22.77,3.69-5.83-5.99-9.63-14.23-14.59-21.08-16.4,9.34-33.04,17.99-50.99,24.03l12.09,42.06c1.16,1.78,8.52-1.41,10.76-2.24,8.26-3.05,18.56-7.59,26.41-11.59,4.66-2.37,21.49-11.6,24.31-14.71,1.1-1.22,1.08-1.93,1.01-3.47,1.65.53,1.54,1.13,3.66.26,3.36-1.38,11.12-8.07,14.35-10.74,11.8-9.75,22.2-21.27,32.54-32.52.67-.75.39-1.22,0-1.99-.25-.49-6.59-7.12-7.56-8.01.57.3,2.02-.18,3.52.94,1.23.91,5.44,6.04,5.98,6.04,8.16-9,15.12-19.2,21.3-29.68,3.3-5.6,12.21-20.71,13.2-26.3h1ZM500.76,765.5c8.81,1.96,66.28-5.16,69.55-9.95.51-.75.56-1.63.51-2.51l-12.64-41.48c-18.53,6.07-37.99,8.21-57.43,8.94v45Z"/>
  <path class="st7" d="M586.76,656.5c.1-.1-.22-1.06.25-1.73.62-.88,2.78-.53,2.8-2.73s-4.81-5.79-4.56-8.52c2,1.46,3.19,5.83,4.93,7.05s4.38.76,4.58.93c.18.15-1.1,1.94-.84,3.25.45,2.28,7.57,10.84,9.06,14.06.69,1.48.44,2.8.77,3.69-3.3-3.21-10.3-16.33-11.17-16.84-1.31-.76-4.28.47-5.83.84Z"/>
  <path class="st7" d="M634.76,668.5c-3.75,4.54-3.25,2.92-7,5,3.77-4.45,3.05-2.89,7-5Z"/>
  <path class="st7" d="M586.76,656.5c-3.52,3.69-8.44,5.21-13,7,5.31-3.42,5.61-5.28,13-7Z"/>
  <path class="st7" d="M627.76,673.5c-3.8,4.5-5.36,7.51-12,9,1.41-2.96,9.05-7.36,12-9Z"/>
  <path class="st7" d="M678.76,668.5c-.59-.31-.67-.58-1-1,.36.32.66.69,1,1Z"/>
  <path class="st7" d="M640.76,635.5c7.56.91,7.77,11.56,16,9-.36,2.47-.07,3.16,1.62,4.88,6.7,6.8,13.07,10.23,19.38,18.12-.24-.22-1.65-.2-2.51-.95-2.92-2.56-18.9-17.24-20.93-17.11-5.33,6.25-12.48,15.29-19.56,19.06.23-.28.19-1.62.95-2.51,5.13-5.94,11.97-11,16.94-17.19-1.69-5.06-7.86-9.06-11.89-13.3Z"/>
  <path class="st7" d="M626.76,708.5c.08.08,1.07-.33,2.06.65,1.18,1.18,6.86,10.69,6.94,12.35-.63-.2-1.05.35-2.05-.66-2.39-2.41-5.27-9.14-6.95-12.34Z"/>
  <path class="st3" d="M343.76,644.5c-3.42-.2-3.04-1.95-4-4,1.33,1.08,3.53-.07,4,4Z"/>
  <path class="st3" d="M346.76,445.5c-.8,5.6-5.27,15.11-6.92,21.58-1.45,5.71-3.43,11.47-3.08,17.42l30.06,3.59c1.84-9.47,5.22-18.43,7.95-27.59,1.93.89.43,3.2.03,4.52-2.35,7.75-5.13,15.35-6.03,23.48,3.67.69,7.56.67,11.23,1.29,1.06.18,3.97.26,3.77,1.71-3.42.96-13.62-2.9-15.56-.05-.92,1.35.53,4.2-1.43,4.06l-.44-5.06c-10.15-2.12-20.97-4.24-31.57-3.94v46.01s32.01-4.01,32.01-4.01c.56-1.38-1-3-1-3.49v-27.5c1.76-.22.95,2.26,1,3.49.37,8.84-.24,17.71,1,26.52,5.5.53,10.81-1.04,16.24-1.36,1.51-.09,2.43-1.29,3.76.87l-18.93,2.54c-.27,2.07-.09,4.14.2,6.2.7,4.85,3.28,16.08,4.74,20.75-.07-.25-1.22-.95-1.5-1.96-2.18-7.92-4.23-15.83-5.59-23.94l-30.91,3.91c-1.9,1.83,8.55,36.84,10.77,41.73l-.76,3.25c-5.23-14.27-9.6-28.88-12.08-43.92l-35.93,4.93c3.13,18.8,6.86,38.39,16.6,54.92l60.42-28.43c1.32-1.4-.35-8.21-1.02-10.5.56,1.8,3.33,5.28,3.59,8.07,4.52.57,7.86-2.73,11.7-4.29.9-.36,2.88-1.78,2.71.21-3.03,1.05-7.44,2.67-9.93,4.57-3.63,2.76-1.58,4.97-7.05,3.84l-25.88,13.2c6.53,17.05,18.58,30.84,29.85,44.91-2.17.2-3.89-3.38-6.03-3.06-4.29.65-5.33,6.51-9.95,6.55,2.59-2.35,9.67-7.24,9.08-10.34-.15-.77-1.81-.9-2.45-1.78-2.13-2.92-4.82-6.1-6.93-9.13-5.61-8.06-9.86-17.14-14.87-25.58-1.12-.67-2.68-.05-3.84.3-8.46,2.54-18.86,10.82-28.06,13.12-1.07,3.98,8.43,18.75,11.05,22.93,4.5,7.19,9.49,12.97,13.02,20.48-10.43-8.44-19.89-28.87-26.08-40.93l-38.02,17.39c-.98.85-.78,1.46-.5,2.55,1.19,4.67,9.52,18.74,12.43,23.67,6.47,10.95,16.94,22.11,22.17,32.33,5.23.41,9.79-6.8,13.49-10.02,5.01-4.35,8.66-8.05,13.48-12.51,3.3-3.05,7.73-2.32,7.02-8.48,1.61.09,4.59-1.19,6-2,.37,2.12-2.73,3.54-2.94,4.62-.27,1.46,2.27,2.21,1.45,3.36-4.52-5.39-9.08,3.54-12.5,6.53-5.3,4.62-9,8.39-13.97,13.06-3.8,3.57-10.7,4.21-7.04,12.43-3.08-3.66-2.73-2.56-5-7-2.25-.18-2.63-1.18-3.99-2.51-5.63-5.53-13.1-17.58-17.43-24.57-22.55-36.41-35.68-78.2-38.58-120.92h1c.28,4.16,1.23,11.34,2.03,15.47.22,1.12.3,1.99,1.55,2.42l41.43-5.88c-2.86-19.53-2.66-39.34-.13-58.88l-41.88-6.12c.09-.64-.1-1.37,0-2l41.43,5.88c.66-.18,2.43-3.26,2.57-3.88h1c-.09,1.26-.19,2.61.14,3.84l35.85,5.16c1.98-11.92,4.84-28.76,11-39l1,1ZM333.76,485.5l-36-5.01c-2.53,19.13-3.27,38.84.08,57.92l34.87-4.97c-.27-16.04-2.24-32.07,1.05-47.95ZM295.62,541.63l-41.79,5.94c3.1,23.08,10.17,45.44,19,66.85l38.85-17c-1.92-7.98-5.92-15.11-8.43-22.93-3.45-10.74-5.38-21.85-7.64-32.86Z"/>
  <path class="st3" d="M671.76,354.5c-2.67,3.24-.78,3.22-6,6,2.8-3.4.91-3.03,6-6Z"/>
  <path class="st3" d="M674.76,405.5c-5.14-5.08-13.61-19.57-17-26,8.05,6.86,12.66,16.69,17,26Z"/>
  <path class="st3" d="M685.76,341.5c9.87,10.91,18.92,21.61,26.81,34.69,22.75,37.72,35.15,80.12,36.19,124.31-.67,0-1.33,0-2,0,.6-2.88-1.94-30.05-3.55-30.02l-42.46,7.02c1.17,7.61,2.44,15.25,2,22.99h-1l-1.99-22.01c-12.15-.48-23.9,3.58-36.01,4.01l2,18c-.67,0-1.33,0-2,0-.12-2.89-.25-14.32-1.43-16.07-1.88-2.77-11.3,1.09-14.56.05-.27-1.31,1.84-1.59,2.74-1.74,3.66-.59,7.59-.55,11.26-1.26-.77-4.31-1.45-8.74-2.5-13-1.9-7.73-7.82-19.4-8.5-26,2.89,3.3,3.42,5.35,5.02,9.48,3.51,9.1,5.34,18.71,7.91,28.09,2.39,1.73,29.67-3.77,34.65-4.52-1.46-18.09-8.74-35.05-14.64-51.99-2.04-1.77-27.68,12.69-32.33,13.84-1.09.84-.76,3.77-.62,5.11-4.79-5.48-5.03-2.15-11-1.01.77-2.58,4.58-1.97,6.03-3.48,1.18-1.22.84-3.37.98-3.52.12-.14,2.23,1.09,3.49,1.07,6.14-.07,23.93-12.76,31.5-14.07-2.17-5.35-4.56-10.76-7-15.99.12.12,1.23-.45,2.07.63,2.04,2.6,4.23,10.01,6.01,13.31,2.3,1.64,34.86-16.41,39.95-18.48-5.9-13.7-13.54-26.68-22.22-38.77-2.49-3.47-10.51-14.89-13.29-16.76-3.61-2.43-8.72,5.67-11.59,7.54-1.54,1-3.08,1.04-3.94,1.54,3.81-4.62,7.23-6.72,11.07-10.47.88-.86.82-2.45.93-2.53.1-.07,1.08.72,1.5.97l.5-.97ZM743.72,468.46c-3.24-22.7-9.34-45.18-19.94-65.54l-39.01,18.62c6.8,17.52,13.08,35.26,15.99,53.96l42.96-7.05Z"/>
  <path class="st3" d="M657.76,367.5c-1.11,1.62-4.03,4-4.04,5.5,0,.66,3.09,4.7,4.04,6.5l-7.36-4.92c-3.47,2.85-7.56,5.24-11.09,7.97s-7.59,6.96-11.31,9.96c-1.03.84-7.57,3.14-5.25,5.99.13.15,4.12-.13,1.99,1.99s-1.84-1.86-1.99-1.99c-.28-.24-2.25.16-3,0-.04-.32,0-.67,0-1-.04-4.69,1.54-2.15,5.77-4.68,4.92-2.94,17.07-13.95,21.75-18.35.64-.6,1.6-.91,2.47-.99l-.03-1.44-6.96-9.55c1.7,1.58,6.76,7.56,8.65,7.89.34.06,5.52-2.45,6.35-2.89Z"/>
  <path class="st3" d="M665.76,360.5c-3.02,3.67-3.82,4.76-8,7,1.26-1.84,1.83-4.45,4.48-6.06,1.63-.99,3.05-.69,3.52-.94Z"/>
  <path class="st7" d="M663.76,500.5c.67,0,1.33,0,2,0,11.99.01,24.01,0,36,0h1c14.65,0,29.35-.08,44,0,.67,0,1.33,0,2,0,7.43.05,17.54-.89,24.52,0,1.82.23,1.62-.34,1.48,2h-26c1.01,35.52-5.9,70.83-18,104-.66.06-1.34-.05-2,0,3.33-11.37,7.73-22.43,10.51-33.99,1.44-5.98,4.19-16.82,4.5-22.55.08-1.5.44-4-.97-5l-42.04-7.46c-1.19,15.07-4.62,31.32-11,45.01.68-4.71,2.22-9.3,2-14,2.9.6,1.83-1.43,2.28-3.17,2.45-9.44,4.54-19.09,5.69-28.8-10.56-1.77-21.09-3.97-31.63-5.91-1.81-.33-3.85.16-5.35-.12-.32-.06-.68.06-1,0-.51-.1-2.03-1.39-3.75-1.72-5.03-.97-10.07-2.36-15.25-2.28.27-.57.99-.93,1-1,5.11-.48,10.72,1.82,15.61,2.06,2.17.1,2.6-.87,3.39-1.06.25-.06.97-.04,1,0,.17.28-.53,1.69.66,2.01,5.08-.45,33.45,6.98,35.4,5.57,2.07-10.13,2.05-21.08,1.94-31.59-11.99.05-24.02-.05-36.01,0-.67,0-1.33,0-2,0-6.55.03-12.88-.7-19-1-.08-.96.61-1.4,1-2,5.32,1.85,12.28.99,18,1ZM746.76,502.5h-43l-2.01,33,41.43,7.91c1.32-.46,1.22-1.42,1.53-2.47,1.05-3.52,1.8-12.9,2.04-16.96.42-7.12-.29-14.37,0-21.49Z"/>
  <path class="st3" d="M318.76,685.5v1c-.81-.92-1.87-1.64-3-3,.98.69,2.04,1.28,3,2Z"/>
  <path class="st0" d="M671.76,354.5c.86-.5,2.4-.54,3.94-1.54,2.86-1.86,7.98-9.97,11.59-7.54,2.78,1.87,10.8,13.29,13.29,16.76,8.68,12.09,16.32,25.07,22.22,38.77-5.1,2.07-37.66,20.12-39.95,18.48-1.78-3.29-3.97-10.7-6.01-13.31-.84-1.08-1.95-.51-2.07-.63-4.34-9.31-8.95-19.14-17-26-.95-1.8-4.04-5.84-4.04-6.5,0-1.5,2.92-3.88,4.04-5.5,4.18-2.24,4.98-3.33,8-7,5.22-2.78,3.33-2.76,6-6Z"/>
  <path class="st0" d="M657.76,379.5c3.39,6.43,11.86,20.92,17,26,2.44,5.23,4.83,10.63,7,15.99-7.57,1.31-25.36,14-31.5,14.07-1.26.02-3.37-1.21-3.49-1.07-.14.16.2,2.3-.98,3.52-1.45,1.5-5.26.89-6.03,3.48,5.97-1.14,6.21-4.47,11,1.01-.14-1.33-.48-4.26.62-5.11,4.64-1.15,30.29-15.61,32.33-13.84,5.89,16.94,13.18,33.91,14.64,51.99-4.99.75-32.26,6.25-34.65,4.52-2.57-9.38-4.4-18.98-7.91-28.09-1.6-4.14-2.13-6.18-5.02-9.48.68,6.59,6.6,18.27,8.5,26,1.05,4.26,1.73,8.69,2.5,13-3.68.71-7.6.66-11.26,1.26-.9.15-3,.42-2.74,1.74,3.26,1.04,12.68-2.83,14.56-.05,1.18,1.74,1.32,13.18,1.43,16.07-5.72,0-12.68.85-18-1,10.84-16.77-14.28-26.82-20.76-12.23-.53,1.2-1.2,2.96-1.24,4.23h-2c-.63-4.02-7.01-10.04-11.5-10.06-3.67-.01-9.84,5.92-10.5,9.06h-1c-.56-2.1-5.47-5.87-8-6l-1-2c8.91-1.36,10.12-18.54-4-18-.43-3.68,2.87-3.64,4.23-7.29.72-1.92,1.02-3.67.77-5.71.23.15.76-.15,1,0,9.42,5.77,19.85,5.41,20-8,.98.09,2.04-.13,3,0,2.72.37,5.09,2.35,7.75,2.78,6.82,1.12,15.54-4.85,15.29-12.25-.56-16.43-26.47-17.54-27.04,4.47-2.18-1.17-6.55-3.49-8.77-3.8-7.49-1.06-11.78,5.91-11.23,12.8-.92-.15-2.23.22-3,0-4.15-1.19-5.65-3.45-11-1v-3c2.29-1.94,3.77-7.12,3-10l2-1c2.44,1.58,9.71,1.42,12.39-.11,4.43-2.53,4.99-7.65,5.61-11.89.05-.33,1.08-1.24,1-2,8.09,6.01,19.88-1.34,20.98-10.59.45-3.79-1.52-6.12-1.98-9.41.75.16,2.72-.24,3,0,.15.13-.13,4.12,1.99,1.99s-1.87-1.84-1.99-1.99c-2.32-2.85,4.22-5.15,5.25-5.99,3.71-3,7.92-7.34,11.31-9.96s7.62-5.12,11.09-7.97l7.36,4.92ZM633.24,411.03c-2.28-3.13-3.78-6.61-6.99-8.51,2.96,4.72,6.04,10.14,9.54,14.45.8.99,2.5,2.82,1.18-.21-.63-2.11-2.41-3.92-3.73-5.72ZM638.26,419.5v1c.65-.33.65-.67,0-1ZM641.67,422.59c-.43-.27-3.32-.69-2.91.9l3.99,3.01c.24-.3-.88-3.78-1.08-3.91ZM638.26,441.5v1c.65-.33.65-.67,0-1ZM620.76,463.5h-3c-4.97-6.45-14.87-7.82-18.25.25-4.66,11.15,8.25,19.76,15.79,11.8,1.79-1.89,3.53-5.54,4.45-8.05.16.17.83-.17,1,0,5.83,5.8,11.09,10.95,19.33,5.83,14.07-8.74.65-30.71-13.26-21.26-4.69,3.19-5.9,6-6.07,11.43Z"/>
  <path class="st0" d="M683.76,341.5c-.11.08-.04,1.66-.93,2.53-3.85,3.76-7.26,5.85-11.07,10.47-5.09,2.97-3.2,2.6-6,6-.47.25-1.89-.05-3.52.94-2.65,1.61-3.22,4.22-4.48,6.06-.83.45-6.01,2.95-6.35,2.89-1.89-.33-6.95-6.31-8.65-7.89-.34-.32-.66-.67-1-1l-2-2c-.34-.33-.66-.67-1-1-9.16-8.92-16-13.58-26-21-1.79-1.33-4.59-1.2-3.26-4.69l21.9-33.4c6.7-1.05,46.55,34.69,52.36,42.08Z"/>
  <path class="st0" d="M598.76,515.5c-1.4,13.18,13.95,14.86,20,5h1c-.33,13.88,16.66,19.48,23,6,5.18-.08,10.22,1.3,15.25,2.28,1.72.33,3.24,1.62,3.75,1.72,1.35,2.34-6.5,24.95-4.5,25.01,3.22-7.8,5.42-16.5,5.5-25.01,1.5.28,3.54-.21,5.35.12,10.54,1.94,21.06,4.14,31.63,5.91-1.15,9.71-3.25,19.35-5.69,28.8-.45,1.74.62,3.77-2.28,3.17-.19-4.18-.75-5.73-3.97-8.53-11.84-10.27-25.61,4.94-34.03,12.53h-4s1,3,1,3c-1.06.87-1.58,2.47-3,3-1.27.47-7.31.4-1,2-1.66,5.99-3.6,7.64-5.88,12.62-1.26,2.75-6.67,17.78-7.77,18.47-2.06,1.29-10.62,2.83-12.45.5-2.17-2.77-.76-13.96.1-17.59,6.05-1.06.17-2.72,0-3-1.64-2.75-2.52-11.33-6-12,.75-3.13,3.05-4.34,3-8,2.71.73,2.98-1.22,4-2l2-1c1.99-2.46,2.12-6.39,3-8,1.83-3.33,5.28-4.96,5.82-9.77.87-7.71-7.31-15.11-14.86-12.78-2.07.64-3.86,3.55-6.95,2.55h-1c-.59-8.09-4.07-13.7-12.7-9.2-.76.4-5.09,3.84-5.3,4.2h-1c-.35-2.79-2.35-11.04-5-12v-2c7.5,1.29,7.59-4.03,11-6,.34-.2,1.41.13,2,0ZM656.74,558.49c.72-1.4-.63-2.67-.98-1.99-.72,1.4.63,2.67.98,1.99ZM655.75,562.5c.5-4.16-1.48-4.16-.98,0h.98ZM654.75,563.51h-1.99v2.99h1.99v-2.99ZM653.75,567.51c-1.09-1.09-3.08.9-1.99,1.99s3.08-.9,1.99-1.99ZM634.76,574.49c-2.16-2.63-6.87-3.87-9.99-4.98.29,1.47,3.27,2.13,4.68,2.81,1.72.83,2.94,2.7,5.32,2.17ZM636.26,574.5v1c.65-.33.65-.67,0-1ZM640.26,577.5v1c.65-.33.65-.67,0-1Z"/>
  <path class="st0" d="M450.76,345.5c-1.15.08-5.86,3.15-8,4-2.48.98-6.38,1.66-9,3-2.26-3.19-5.14,1.61-6,2-.46.21-1.56-.21-2,0-.07-3.64-6.61-4.55-8.97-3.49-4.26,1.92-2.48,6.33-3.03,9.49-.19,1.12-.57,1.98-1,3l-3-1c-.32-1.13-1.71-4.73-2.51-5.01-1.9-.66-1.8.56-.85,1.99.31.47,2.13,1.63,2.36,3.01.81,4.84-3.53,4.6-7,8-.34.33-.67.66-1,1l-14.03,10.47c-2.29,3.07-7.14,5.14-6.97,9.53-.34.38-.77.72-1,1-1.76.87-3.84,3.61-5.97,2.55-4.27-6.13-20.71-15.97-23.59-21.56-1.13-2.2,6.64-8.42,8.6-10.49.77-.81.74-2.28.96-2.5.35-.32.67-.67,1-1,.33-.33.67-.66,1-1,2.28-2.41,4.05-3.55,7-7,.14-.16,1.35-.22,2-1,2.9-1.6,2.7-.97,5-4,.7-.33,1.51-.15,2.56-.94.75-.57.96-1.46,1.44-2.06.77-.33,1.51-.15,2.56-.94.75-.57.96-1.49,1.44-2.06,4.25-1.72,6.05-4.2,11-2.01-3.03-4.97,7.2-8.87,11.33-11.17,11.15-6.2,23.83-11.17,36.1-14.73,1.86.48,9.21,28.77,9.57,32.9ZM395.75,339.51c-1.09-1.09-3.08.9-1.99,1.99s3.08-.9,1.99-1.99ZM397.75,342.5c-4.59-1.18.58,6.5,2,4.99s-3.55-2.72-2-4.99ZM401.74,348.5c-.43-.47-2.73-.26-1.98,1.49.46,1.07,3.75,3.88,4.5,5.49-.82-1.2-2.27-6.71-2.52-6.98Z"/>
  <path class="st0" d="M358.76,360.5c-.23.22-1.69.18-2.5.96-2.25,2.14-8.19,9.62-10.8,8.94l-30.68-28.39c14.83-16.56,31.55-32.12,51.01-43.07l22.79,34.31c1.29,3.01-2.97,2.89-4.8,4.82-.96,1.02-.83,2.23-1.01,2.44-.6.24-1.95-.29-3.03.47s-.74,2.25-.97,2.53c-.57.24-1.95-.29-3.03.47s-.72,2.21-.97,2.53c-.69.32-2.12-.26-3.59.92-1.24,1-1.08,2.69-1.41,3.08-.61.34-1.23.52-2,1-5.33,3.37-4.13,4.19-7,7-.34.33-.67.67-1,1-.33.33-.67.66-1,1Z"/>
  <path class="st15" d="M546.76,348.5c.55-.14,1.35.1,1.99-.01l-2.07-1.54,10.14-34.41c2.46-1.8,48.25,19.86,48.88,22.55l-19.95,31.41c-.05-.4-4.48-4.13-5.28-4.65s-5.27-1.75-6.72-2.35c-2.69-1.11-6.6-3.96-9-4,.2-3.39-5.74-4-8-3.99l4,4.99c-.47.22-5.82,4.66-6,5l-7-1c.71-2.93-.6-8.29-2-11,.38-.2.75-.94,1-1ZM551.26,349.5v1c.65-.33.65-.67,0-1ZM554.75,350.51c-1.4-.72-2.67.63-1.99.98,1.4.72,2.67-.63,1.99-.98Z"/>
  <path class="st0" d="M309.76,675.5c-5.23-10.22-15.7-21.37-22.17-32.33-2.91-4.93-11.24-19-12.43-23.67-.28-1.09-.48-1.7.5-2.55l38.02-17.39c6.18,12.06,15.65,32.49,26.08,40.93.96,2.05.58,3.8,4,4,.71,6.15-3.73,5.43-7.02,8.48-4.82,4.46-8.47,8.15-13.48,12.51-3.7,3.22-8.26,10.43-13.49,10.02Z"/>
  <path class="st0" d="M339.76,640.5c-3.53-7.51-8.53-13.29-13.02-20.48-2.62-4.19-12.13-18.95-11.05-22.93,9.2-2.3,19.6-10.58,28.06-13.12,1.16-.35,2.72-.96,3.84-.3,5.01,8.44,9.26,17.51,14.87,25.58,2.11,3.03,4.8,6.2,6.93,9.13.64.88,2.3,1.01,2.45,1.78.59,3.1-6.48,7.99-9.08,10.34-.8.72-1.41,1.46-2,2-2.73,2.48-7.18,6.85-10,9-.37.28-.68.82-1,1-1.41.81-4.39,2.09-6,2-.47-4.07-2.67-2.92-4-4Z"/>
  <path class="st15" d="M499.76,340.5c3.07-10.46-.2-25.84.99-37.01,18.19.27,36.56,2.67,53.97,8.07-2.38,10.72-5.3,21.45-8.5,31.95-.5,1.64.22,3.56-2.47,2.98-1.23-.59-10.55-1.38-12-1v-1c-4.67-2.73-11.09-2.22-16.25-3.25-2.31-.46-4.79-2.65-7.35-2.72-2.86-.08-5.23,2.69-8.39,1.97Z"/>
  <path class="st0" d="M346.76,443.5c.87-1.1,1.26-2.37,1.96-3.57l1.36-.32,26.06,11.8c1,.55.79,2.14.62,3.1-.26,1.44-1.46,4.18-2,6-2.72,9.16-6.11,18.12-7.95,27.59l-30.06-3.59c-.34-5.95,1.63-11.72,3.08-17.42,1.65-6.47,6.12-15.97,6.92-21.58.09-.62-.01-1.35,0-2Z"/>
  <path class="st0" d="M346.76,443.5c-.28.36-.79.64-1,1-6.17,10.24-9.03,27.08-11,39l-35.85-5.16c-.33-1.23-.23-2.58-.14-3.84.67-9.6,9.42-38.85,14.22-47.27,1.17-2.06,2.21-3.39,4.78-2.31,4.09,3.49,27.62,11.09,28.84,14.28.45,1.18.18,2.98.16,4.3Z"/>
  <path class="st3" d="M665.76,502.5c.17,8.01-.59,16.11-2,24-.03-.04-.75-.06-1,0l1-24c.67,0,1.33,0,2,0Z"/>
  <path class="st3" d="M360.76,632.5c-1.09,4.17-6.21,7.4-10,9,2.82-2.15,7.27-6.52,10-9Z"/>
  <path class="st3" d="M612.76,337.5c10,7.42,16.84,12.08,26,21-2.26-.54-4.74-2.53-6.5-4-6.01-5.02-12.46-11.7-19.5-16v-1Z"/>
  <path class="st3" d="M387.32,690.09c-.39.66-2.43,1.03-1.57,3.41l-1.98-1.48,6.98-10.51c-.44,3.15-1.84,5.88-3.43,8.58Z"/>
  <path class="st3" d="M379.77,571.5c3,1.83,3.44,5.98,4.5,8.98-2.02-2.57-4.67-5.47-4.5-8.98Z"/>
  <path class="st7" d="M372.74,713.5c-.42.46-2.73.27-1.98-1.49l7.98-10.51c-.66,3.16-3.33,5.78-5.05,8.47-.8,1.26-.83,3.39-.95,3.52Z"/>
  <path class="st3" d="M641.76,361.5c-.7-.68-1.36-1.37-2-2l2,2Z"/>
  <path class="st3" d="M386.75,584.49c-.47.97-1.93-1.98-1.5-2.97,1.08.89,1.83,1.51,1.5,2.97Z"/>
  <path class="st1" d="M381.74,447.49c-2.2-.01.9-6.13,2-5.99l-2,5.99Z"/>
  <path class="st3" d="M375.76,619.49c-.84-.4,2.9-2.74,3.97-2.5-1.27,1.23-2.08,2.9-3.97,2.5Z"/>
  <path class="st3" d="M380.74,630.49c-.35.68-1.7-.59-.98-1.99.35-.68,1.7.59.98,1.99Z"/>
  <rect class="st3" x="382.92" y="631.24" width=".66" height="3.52" transform="translate(-335.35 456.4) rotate(-45)"/>
  <path class="st3" d="M350.26,652.5c.65.33.65.67,0,1v-1Z"/>
  <path class="st3" d="M352.25,654.52c4.52,5.04,10.4,9.16,14.02,14.96-4.52-5.04-10.4-9.15-14.02-14.96Z"/>
  <path class="st3" d="M383.26,694.5c.65.33.65.67,0,1v-1Z"/>
  <path class="st7" d="M367.26,718.5c.65.33.65.67,0,1v-1Z"/>
  <path class="st0" d="M524.76,644.5c-1.34,11.21-1.82,38.45,16.34,26.84,14.72-9.41,23.13-39.04,28.67-54.84,2.86-.59,2.08,1.37,1.97,3.48-.32,6.26-4.61,19.94-3.82,24.77.7,4.25,5.4,4.78,8.82,3.23,5.3-2.4,4.92-11.65,6.07-15.74.23-.82,1.57-.83,1.85-1.54,1.47-3.76,8.7-25.14,9.57-26.23.97-1.23,3.41-.66,5.01-1.99,2.76-2.29,4.5-10.63,9.51-10.99v24.5c0,2.3,4.15,6.59,6.3,7.7,4.57,2.34,7.32,1.28,11.7,1.8,6.09.73,6.45,6.38,12,8,.67.74,1.35,1.31,2,2,4.04,4.24,10.2,8.24,11.89,13.3-4.97,6.19-11.81,11.25-16.94,17.19-.76.89-.72,2.22-.95,2.51-3.95,2.11-3.23.55-7,5-2.95,1.64-10.59,6.04-12,9-7.59,1.7-4.5-2.38-7.23-4.81-.53-.48-1.61-.06-1.77-.19-.41-1.1-.06-3.18-.91-4.39-.73-1.06-1.96-.47-2.09-.61-.33-.89-.08-2.2-.77-3.69-1.49-3.22-8.61-11.78-9.06-14.06-.26-1.3,1.02-3.1.84-3.25-.2-.17-2.83.29-4.58-.93s-2.94-5.59-4.93-7.05c-.24,2.73,4.59,6.4,4.56,8.52s-2.19,1.85-2.8,2.73c-.47.67-.15,1.63-.25,1.73-7.39,1.72-7.69,3.58-13,7-3.92,1.53-8.61,3.28-12.74,4.76-6.35,2.29-12.98,3.76-19.26,6.25.5,2.37,5.82.16,6.89,1.09,1.36,1.18,8.8,30.51,9.08,34.88-18.81,4.06-37.6,7.85-56.98,8.02v-37c11.78-.95,23.67-.82,35.01-4.5,0-1.76-31.86,3.88-35.01,2.5v-33.5c0-2.83,20.86-.97,24-1.5ZM622.75,626.5c-4.27,5.85-11.46,9.53-14.5,15.98,4.03-3.74,9.16-8.19,12.86-12.12,1.23-1.31,2.16-1.43,1.64-3.85ZM606.75,642.51c-1-1.02-4.01,1.95-2.99,2.99s4.01-1.95,2.99-2.99ZM602.75,645.51c-1.09-1.09-3.08.9-1.99,1.99s3.08-.9,1.99-1.99ZM598.75,648.51c-1.09-1.09-3.08.9-1.99,1.99s3.08-.9,1.99-1.99Z"/>
  <path class="st0" d="M635.76,721.5c.07,1.54.09,2.25-1.01,3.47-2.82,3.11-19.65,12.34-24.31,14.71-7.85,4-18.16,8.54-26.41,11.59-2.25.83-9.6,4.03-10.76,2.24l-12.09-42.06c17.96-6.04,34.59-14.69,50.99-24.03,4.97,6.85,8.76,15.09,14.59,21.08,1.67,3.2,4.55,9.93,6.95,12.34,1,1.01,1.43.46,2.05.66Z"/>
  <path class="st0" d="M677.76,667.5c.33.42.41.69,1,1,.97.89,7.31,7.52,7.56,8.01.4.77.67,1.23,0,1.99-10.35,11.25-20.75,22.77-32.54,32.52-3.24,2.67-10.99,9.36-14.35,10.74-2.12.87-2.01.27-3.66-.26-.08-1.65-5.76-11.17-6.94-12.35-.98-.99-1.98-.58-2.06-.65-.24-.47-.14-2.3-.77-3.69-2.95-6.47-13.71-14.98-10.23-22.31,6.64-1.49,8.2-4.5,12-9,3.75-2.08,3.25-.46,7-5,7.08-3.78,14.23-12.81,19.56-19.06,2.03-.13,18.01,14.55,20.93,17.11.86.75,2.27.74,2.51.95Z"/>
  <path class="st0" d="M682.76,607.5c8.44,16.03,25.63,11.71,40,10-.07.64.11,1.38,0,2-.99,5.59-9.9,20.7-13.2,26.3-6.18,10.48-13.15,20.68-21.3,29.68-.54,0-4.76-5.13-5.98-6.04-1.5-1.12-2.95-.64-3.52-.94-.34-.31-.64-.68-1-1-6.31-7.89-12.68-11.32-19.38-18.12-1.7-1.72-1.98-2.41-1.62-4.88.18-.06.57-.74,1-1,.47-.29,1.97-.05,2.57-.9,7.23-10.74,14.7-22.09,20.43-34.1.68-.28,1.32-.7,2-1Z"/>
  <path class="st0" d="M586.76,656.5c1.54-.36,4.51-1.6,5.83-.84.87.51,7.87,13.62,11.17,16.84,1.06,2.88.45,2.76,3,5,.56,1.5,2.97,6.82,2.86,7.37-.92,4.77-47.02,26.03-49.82,23.59l-9.12-34.37c6.26-3.18,15.6-5.18,21.39-8.82,1.09-.68,1.49-1.65,1.68-1.77,4.56-1.79,9.48-3.31,13-7Z"/>
  <path class="st0" d="M728.76,606.5c-9.86.82-29.81,6.07-37.01-2.49-2.62-3.12-2.36-5.03-2.99-8.51l9,2.99c-1.59-2.92-5.97-3.64-9-3.99-.5-4.24-.61-4.57,0-9,.02-.11.74-.34,1-2,.05-.33-.05-.67,0-1,6.38-13.68,9.81-29.94,11-45.01l42.04,7.46c1.41,1,1.05,3.5.97,5-.31,5.73-3.06,16.58-4.5,22.55-2.78,11.56-7.18,22.62-10.51,33.99ZM706.75,602.49c-1.34-2.67-5.34-3.4-7.99-3.99-.55,2.87.78,1.6,2.19,2.26,1.81.85,3.71,1.87,5.81,1.73Z"/>
  <path class="st9" d="M682.76,607.5c-.68.3-1.32.72-2,1-4.15,1.71-2.79,4.07-4.82,7.68-5.42,9.6-12.27,18.05-18.18,27.32-.43.26-.82.94-1,1-8.23,2.56-8.44-8.09-16-9-.65-.69-1.33-1.26-2-2-.16-.18-.11-1.59-.94-2.51-2.43-2.66-4.83-4.85-8.06-6.49,1.87-.93,4.52-3.64,6.69-3.84s3.03,3.3,5.85,3.84c11.84,2.23,27.84-22.82,35.96-29.97,2.38,4.23,2.09,8.41,4.5,12.98Z"/>
  <path class="st7" d="M688.76,594.5c3.03.35,7.41,1.07,9,3.99l-9-2.99c-.06-.32.04-.67,0-1Z"/>
  <path class="st7" d="M629.76,624.5c3.23,1.64,5.63,3.83,8.06,6.49.83.91.78,2.33.94,2.51-5.55-1.62-5.91-7.27-12-8,.73-1.13,2.39-.7,3-1Z"/>
  <g>
    <path class="st9" d="M558.76,380.5c-.5-.12-.71-.75-1-1,.5.12.71.73,1,1Z"/>
    <path class="st9" d="M609.76,544.5c-.09-1.32.1-2.68,0-4h1c.46,1.97-.12,2.55-1,4Z"/>
    <path class="st9" d="M447.76,437.5c-1.14-.94-.68-1.19-1-2,1.35.69.73,1.11,1,2Z"/>
    <path class="st9" d="M612.76,338.5c7.03,4.3,13.49,10.98,19.5,16,1.77,1.48,4.24,3.46,6.5,4,.34.33.66.67,1,1,.64.63,1.3,1.32,2,2,.34.33.66.68,1,1l6.96,9.55.03,1.44c-.88.07-1.83.39-2.47.99-4.68,4.41-16.83,15.41-21.75,18.35-4.23,2.53-5.81-.01-5.77,4.68-5.1-.33-7.93-2.84-13.45-1.94-4.91.8-10.91,8.28-10.52,13.31.16,2.08,3.45,8.49,4.97,9.62.08.76-.95,1.67-1,2-5.43-5.26-10.09-10.92-17.77-5.27-5.6,4.13-5.45,13.9-.23,17.27l-2,1c-1.87-6.97-14.86-8.87-16.79-.28s7.15,15.91,13.79,10.28v3c-4.96,2.27-5.14,9.36-4,14h-1c-.08-.31-2.93-3.6-3.48-4.01-10.75-8.02-18.15,14.65-3.52,14.02.12,2.39-2.28,3.37-2.8,5.72-3.16,14.19,20.68,11.59,14.81-2.72.63.38,1.35.64,2,1,.41,3.71,6.84,8.64,11,8l1,2c-8.34-.43-12.7,11.37-4.96,16.45,6.69,4.39,14.91-3.09,12.96-10.45h1c-1.05,4.97,4.43,13.63,9.56,13.97,6.04.4,13.31-7.43,12.44-12.97h2c-.21,7.88,8.1,13.05,15.45,11.94,1.97-.3,3.79-2.03,5.55-1.94,6.12.3,12.45,1.03,19,1l-1,24c-.79.19-1.22,1.16-3.39,1.06-4.89-.24-10.5-2.54-15.61-2.06,3.77-18.16-23.62-20.76-24-5h-1c1.94-13.98-18.59-18.21-20-5-.59.13-1.66-.2-2,0,1.02-9.21-10.02-15.62-15.84-7.35-3.72,5.28-1.25,12.3,4.84,13.35v2c-4.61-1.67-11.13,1.27-11.95,6.56-1.98,12.77,10.15,13.24,16.95,5.44h1c-6.21,10.64,10.87,20.69,18,9,.91,13.47,1.21,17.21,17,16-.88,1.61-1.01,5.54-3,8-.07.09-1.03.26-2,1-1.02.78-1.29,2.73-4,2-.12-7.79-8.79-9.91-15.24-7.73-2.05.69-3.09,1.82-4.76,2.73.18-6.95.12-14.83-8.49-15.08-16.3-.49-11.62,22.22,2.78,18.88,2.43-.56,3.72-2.7,5.71-3.8-.13,5.04-2.31,8.58,1,14-.24.08-2.92,3.65-3,4-3.18-.45-8.24.03-10,3,1.23-3.53-3.6-6.12-4-7-.3-.66.04-2.94-.77-4.7-5.91-12.91-20.98-6.72-18.2,7.18.45,2.26,5.26,5.6,6.98,5.52-.59,7.04-4.89,13.72-7,20-4.9-8.08-8.64-1.63-9,5-1.7-1.01-7.72-.97-10-1,.65-3.62.21-10.62-1-14-1.32-3.68-5.26-8.23-9.47-8.08-6.77.24-15.21,11.74-6.53,16.08-10.9,5.61-21.54,10.55-33.02,15.55-1.39.61-2.42,1.76-3.98.45.33-15.94-26.78-7.73-17,8-5.11,1.92-12.62,4.09-17,6,.21-5.9-7.37-6.86-9.49-1.98-1.82,4.2,1.57,5.6-6.51,5.98-.54-8.79-18.05-12.83-21.87-5.37-2.89,5.66.21,10.68.87,16.37-2.86,1.08-7.16,4.38-12,6-.75.25-2.2-.24-3,0-3.05-2.63-11.03-.39-12.91,2.59-1.23,1.96-.49,4.87-2.69,6.31-8,4.38-34.33,12.22-38.26,19.73-1.22,2.33-2.21,4.76,1.19,5.22l40.67-16.86c-.56,6.8,4.52,13.39,11.74,10.24,6.85-2.98,10.09-12.72,6.26-19.24,1.25-.42,3.91-2.24,6-3-1.36,5.88-3.85,9.58.15,15.35,13.44,19.38,37.57-12.08,11.85-19.35,8.48-3.14,17.39-6.74,26-10,1.75.77.51,9.21,3.48,7.99,3.37-1.39,5.31-7.53,4.52-10.99,13.99-5.39,32.01-11.68,45-18-.14,2.75-.72,7.93,3.34,6.87,2.43-.63,4.97-7.98.66-7.87.14-.09-.37-1.57,1.8-2.68,5.87-3,12.08-5.87,18.2-8.32,1.26,1.42-4.39,23.06-4.99,27-4.3-.91-22.55,3.06-24.56.06-.81-1.2.18-3.38-.94-4.07-1.22,0-.05,4.55-.5,5.01-.74.75-17.92-3.25-20.99-1.99.61,1.42,5.05,1.62,6.63,1.85,4.69.7,9.61,1.15,14.37,1.13l-1.06,34.95-21.4-1.98-8.54,1.03,30,3.01v37c-13.07-.92-26.09-1.69-39-4-.6-1.65,5.46-5.06,6.9-8.6,7.04-17.35-23.34-24.58-23.98-5.91-.42,12.03,7.97,12.88,17.09,14.51.92,2.54,20.02,4.7,23.51,4.99,2.57.21,15.49-.95,15.49,1.51v44c0,.35-1.45,1.68-2.26,1.31-22.7-1.09-44.91-4.45-66.66-10.88-1.85-2.14,11.69-37.92,10.91-43.92l-13.08,41.89c-2.04,1.78-23.54-7.37-27.26-9.04-5.15-2.3-32.73-16.36-34.19-19.88-.67-1.62.89-3.57.54-3.97-1.76-2.06-1.6,2.28-3.44,2.04-3.54-.45-22.71-16.13-26.57-19.54-6.23-5.5-11.33-12.49-17.99-17.51-.96-.72-2.02-1.31-3-2-.3-.36-.7-.64-1-1-3.66-8.22,3.24-8.87,7.04-12.43,4.97-4.66,8.67-8.44,13.97-13.06,3.43-2.99,7.98-11.92,12.5-6.53.82-1.15-1.72-1.9-1.45-3.36.2-1.08,3.31-2.5,2.94-4.62.32-.18.63-.72,1-1,3.79-1.6,8.91-4.83,10-9,.59-.54,1.2-1.28,2-2,4.62-.04,5.66-5.9,9.95-6.55,2.14-.32,3.86,3.26,6.03,3.06-11.27-14.07-23.32-27.86-29.85-44.91l25.88-13.2c5.47,1.13,3.42-1.08,7.05-3.84,2.5-1.9,6.91-3.51,9.93-4.57.17-1.99-1.81-.57-2.71-.21-3.84,1.56-7.18,4.86-11.7,4.29-.26-2.79-3.02-6.27-3.59-8.07-1.47-4.67-4.05-15.9-4.74-20.75-.29-2.06-.48-4.13-.2-6.2l18.93-2.54c-1.33-2.16-2.24-.95-3.76-.87-5.43.31-10.74,1.88-16.24,1.36-1.24-8.81-.63-17.67-1-26.52-.05-1.23.76-3.71-1-3.49v27.5c0,.5,1.57,2.12,1,3.49l-32.01,4.01v-46.01c10.6-.3,21.42,1.81,31.57,3.94l.44,5.06c1.95.14.51-2.7,1.43-4.06,1.94-2.85,12.14,1.01,15.56.05.2-1.45-2.72-1.53-3.77-1.71-3.67-.62-7.55-.6-11.23-1.29.91-8.13,3.69-15.72,6.03-23.48.4-1.32,1.9-3.63-.03-4.52.54-1.82,1.74-4.56,2-6,3.74-1.91,6.41.3,9.99.99-2.22-3.68-7.58-1.22-6-6.99l-3.31,1.85c-3.41-2.55-25.38-10.12-26.55-11.97-1.32-2.09,3.2-9.48,4.39-11.91.49-1,.31-2.69.49-2.96.16-.25,3.45-.36,3.06-4.22l14.12-19.58c3.96-2.29,5.9,5.27,9.81,5.31-3.84-6.43-10.12-4.83-3.98-12.51.23-.28.66-.62,1-1,3.67-4.16,10.26-10.63,15-13-8.83,15.1,10.93,26.53,17.21,13.72,5.18-10.56-4.2-20.5-15.21-15.72.76-1,3.61-4.6,4-5,.33-.34.66-.67,1-1,2.43-.07,9.77-4.29,11-6,6.09,4.28-1.24,8.82,4.95,14.55,5.2,4.81,13.01,5.43,16.56-1.54,4.67-9.17,2.48-20.39-9.5-17.01l2.99-4.99.49.98c1.62-.73,4.36-3.39,5.51-3.98,2.62-1.34,6.52-2.02,9-3-2.6,6.62-4.3,15.34,2.67,19.83,12.49,8.06,25.1-11.62,9.33-21.83,1-1.75,2.8-1.66,4.46-2.04,2.59-.6,7.12-2.09,9.54-.96-9.02,18.19,15.77,27.79,19.55,10.06,1.17-5.49-.04-7.49-2.55-12.06,4.66.18,8.33,1.62,13,0-2.8,6.07-5.68,6.29-2.73,14.24,6.42,17.35,28.63,2.31,22.74-12.23h13s0,.99,0,.99c-.42.11-3.44,2.85-3.99,3.51-9.83,11.66,5.03,27.09,14.94,18.93.56-.46,4.95-7.01,5.05-7.44l7,1c-2.53,4.71-1.34,14.25,3,18-1.54-.37-6.62-.17-8.29.21-6.98,1.57-10.62,13.93-5.24,18.82,11.38,10.34,25.07-8.37,14.53-18.03,14.08,3.49,18.99-9.46,15-21,1.45.6,5.91,1.81,6.72,2.35s5.23,4.25,5.28,4.65c.07.59-2.27,3.17-.01,2.99l21.21-32.75c1.3-.55,4.62,1.04,5.8,1.76ZM501.47,366.71c-10.68,2.43-10.98,22.51,3.69,20.77,14.43-1.71,10.95-24.1-3.69-20.77ZM477.48,367.69c-11.21,2.47-8.22,21.53,2.52,20.62,13.78-1.17,10.77-23.55-2.52-20.62ZM535.45,390.19c2.65-2.45,3.8-8.64,3.26-12.13-1.26-8.07-13.31-10.73-18.38-3.49-8.3,11.84,6.5,23.59,15.12,15.62ZM464.41,375.85c-9.44-9.92-23.07,4.87-15.1,14.6,9.75,11.89,24.17-5.07,15.1-14.6ZM585.5,373.73c-11.82,2.04-13.6,21.62-.18,23.7,19.45,3.02,21.07-27.3.18-23.7ZM607.25,381.52c1.1,3.25,4.91,5.37,7.02,7.96-1.09-3.24-4.91-5.37-7.02-7.96ZM432.46,383.71c-10.47,2.4-8.52,21.88,2.69,20.77,13.01-1.29,14.34-24.67-2.69-20.77ZM479.46,390.71c-7.08,2.11-6.59,16.81-.15,17.81,16.83,2.61,13.01-21.65.15-17.81ZM499.47,390.71c-7.35,1.65-8.15,14.91-1,16.57,17.96,4.17,15.08-19.73,1-16.57ZM616.25,390.52c-.99.7.54,1.37,1.02,1.96.99-.66-.47-1.32-1.02-1.96ZM521.52,393.68c-8.66,1.13-11.76,13.74-3.51,17.06,16.23,6.54,16.31-18.73,3.51-17.06ZM568.5,394.75c-10.09,2.6-9.6,23.59,5.52,20.52,12.28-2.49,9.99-24.51-5.52-20.52ZM461.49,395.67c-9.86,2.06-10.15,21.99,5,17.06,10.61-3.45,4.67-19.08-5-17.06ZM411.46,397.7c-1.48.45-5.87,5.24-6.31,6.78-2.62,9.26,13.92,20.4,19.85,6.77,3.16-7.27-6.43-15.7-13.54-13.54ZM539.51,400.67c-11.83,1.94-8.85,21.59,4.54,17.61,8.58-2.55,7.02-19.51-4.54-17.61ZM442.48,404.69c-11.82,2.61-7.08,24.01,6.55,17.57,10.57-4.99,3.73-19.84-6.55-17.57ZM393.76,415.5c-7.14,7.11-2.15,22.1,9.05,18.55,11.96-3.79,1.59-24.1-8.05-19.55l-10.51-8.98c.86,4.52,6.9,5.86,9.51,9.98ZM477.93,413.67c-.94,1.54.2,12.29,1.77,13.39,1.88,1.32,8.13.54,10.02-1.09,3.35-2.89,1.87-13.19-1.66-14.27-2.12-.65-9.17.4-10.13,1.97ZM496.46,411.7c-3.65,1.07-3.51,12.08-2.26,13.85,1.8,2.56,11.9,3.68,13.34-2.77,2.04-9.14-1.54-13.9-11.08-11.08ZM556.52,412.68c-13.99,1.83-8.05,24.46,4.14,17.24,9.09-5.39,4.67-18.39-4.14-17.24ZM522.52,415.73c-.62-.62-5.28-2.14-6.28-2.13-6.14.09-11.29,16.03.15,16.87,7.18.53,9.43-11.45,6.13-14.74ZM470.54,415.68c-13.61.57-11.2,19.23,1.27,15.36,6.82-2.12,4.5-15.6-1.27-15.36ZM434.44,419.82c-8.36-7.65-22.95,4.12-14.23,13.72,9.51,10.45,22.44-6.2,14.23-13.72ZM536.76,434.5c-.92,7.19,3.99,14,10.96,9.45,8.38-5.47,2.15-17.23-5.7-13.71-2.48,1.11-2.61,3.36-3.53,4.02-.67.48-1.48.11-1.73.24.56-4.39,5.89-13.03-3.59-14-12.76-1.3-12.05,22.29,3.59,14ZM446.76,435.5c-11.81-6-18.41,11.5-8.29,13.78,8.59,1.93,11.58-4.29,9.29-11.78,2.16,1.79,6.32,2.43,9.05,1.55,9.76-3.13,3.41-19.42-4.8-15.8-5.15,2.27-7.35,6.95-5.26,12.25ZM484.48,430.73c-5.16,1.15-3.95,8.22-2.53,12.08,1.8,4.88,13.37,3.95,10.36-8.37-1.12-4.59-3.4-4.7-7.83-3.71ZM504.62,430.63c-.6-.39-6.2-.34-7.37-.13-4.7.85-5,12.31-.59,13.55,5.51,1.56,8.37-1.63,9.45-1.45s2.73,2.97,4.61,3.5c6.83,1.94,13.44-15.41.6-14.56-3.61.24-3.29,2.49-5.55,3.96-.16-1.07-.55-4.47-1.15-4.86ZM479.58,446.33c.92-1.51-.31-11.36-1.76-12.4-2.56-1.83-9.97.56-9.8,4.9.04,1.05,2.54,7.99,3.21,8.69,1.8,1.88,7.69-.12,8.35-1.19ZM409.49,434.67c-8.23,1.66-9.97,15.9-.47,19.05,17.89,5.94,17.5-22.5.47-19.05ZM526.76,449.5c-1.05,6.12,3.36,9.6,8.99,7-.95,10.26,1.7,7.38,9.01,8-.57.95-2.44,3.48-2.57,3.91-.45,1.47-.66,3.58-.43,5.09-5.3,1.19-4.22-2.62-5.97-4.53-1.51-1.64-3.09-2.2-4.56-3.47-.96-.83-1.32-2.69-1.62-2.87-1.22-.72-3.48.85-4.84.87,0-.94,1.14-2.57.9-3.41-.76-2.75-5.9-.92-6.77-1.74-.35-.33.02-2.21-1.14-3.31-.54-.51-3.64-1.73-4.99-2.54-.28-.17-1.14-.08-1.97-.57-1.6-.96.26-3.53-5.07-1.93-6.15,1.86,1.6,3.17,1.9,3.65.6.95-.19,3.5.13,3.85s3.92-.28,5,0c.31.08,5.09,2.03,5.69,2.33,1.45.72,1.73,3.73,6.31,3.67.05,5.2,4.15,4.32,4.77,5.18s-.02,2.76.69,3.84,4.27,1.18,4.55,2.51c.1.48-3.73,5.67-.76,8.3,1.22,1.08,3.12-1.7,2.75,3.18-.56,7.35.73,6.51-2.5,15.02-.6,1.58-.15,3.72-.74,4.75-.86,1.5-11.72,11.04-13.84,12.67-1.1.85-1.52,2.86-2.19,3.29-1.44.92-11.93,2.88-14.06,2.88-9.75-.02-23.87-6.14-26.43-16.35-.85-3.37,1.4-9.78-4.53-8.09-6.13,1.74-2.35,6.42-2,8.5.22,1.35-1.02,2.94-.59,4.63.56,2.21,3.6,2.48,3.8,2.8s-2.26,3.69.62,6.88c1.71,1.9,4.51,1.52,5.23,2.28.59.62.26,2.61,1.17,3.3,1.25.94,3.83.09,5.41.61,1.42.47,1.71,2.72,3.34,3.66,7.31,4.22,14.82,1.91,21.96.5,1.37-.27,2.6.99,5.07-.03,3.7-1.53,2.97-4.96,3.3-5.29.37-.37,7.07,2.98,9.5-1.99,1.75-3.58-1.01-5.7-1.5-9,1.54-.39.59,1.42,1.72,1.95,3.71,1.73,7.97.95,9.78-2.98,1.98-4.29-2.15-4.4-2.5-7.97,6.81.83,7.31-4.13,7.93-9.66.23-2.06-1-3.82-.76-5.63.17-1.26,1.59-2.41,1.72-4.2.38-5.44-3.83-2.97-6.9-2.51-1.17-3.47,3.46-4.03,3.91-5.64s-2.07-4.48.09-5.36c1.4,1.43,4.17,1.62,6,2-6.19,5.16,1.99,10.83,1.98,11.5-.01,1.46-8.42,4.84.02,10.5.19,3.12-3.89,2.69-4.8,5.72-1.37,4.53,2.67,5.8.8,9.28-5.54-1.17-2.32,4.2-4.23,5.77-2.83,2.32-5.28-1.42-5.77,6.23-.04.59.13,1.91,0,2-1.31.95-8.34-2.38-9.83,4.73-1.73,8.28,9.87,8.46,12.34,4.28.94-1.59.23-4.76.48-5.02.45-.46,8.14,1.36,9-4,.21-1.29-.39-3.01-.01-4.25.13-.45,2.18-1.85,3.01-2.75,3.4-3.65.64-3.72-1-7.99,9.44-.5,10.74-7.48,3-13.01,5.12.7,8.72-5.45,5.9-9.42-.81-1.15-2.92-1.53-2.97-2.14-.18-2.31,9.26-12.96-3.93-12.44,3.62-10.63,2.56-11.11-8-12,1.72-2.85,3.82-2.88,2.58-7.03-1.38-4.64-5.59-4.19-9.58-3.98,5.65-6.83-3.18-14.43-9-6.99,3.93-8.91-8.43-13.37-9.95-3.43-1.1,7.2,1.78,6.76,7.95,6.43ZM458.76,450.5c-9.16-4.24-13.73-1-11,9-6.62-1.65-12.27,3.02-9.26,9.75.96,2.15,3.15,2.75,4.26,4.25-3.24-.01-8.02-2.37-10.48,3.01-3.9,8.54,10.23,14.54,13.76,5.68,1.19-2.98-1.49-6.29-3.28-8.69,7.9.03,11.78-7.7,6-13,9.72,4.21,11.49-1.33,10-10,3.09,1.43,2.78,4.4,7.73,2.24,7.64-3.32-1.7-19.96-8.18-10.18-2.65,3.99-.19,4.2.45,7.93ZM381.74,447.49l2-5.99c-1.1-.14-4.2,5.97-2,5.99ZM549.99,454.26c5.33,5.33,17.77-3.12,11.23-10.73-6.25-7.27-17.33,4.63-11.23,10.73ZM495.76,449.5c-5.95-5.76-23.8-1.45-19.01,8.99-2.11-.4-1.15-4.03-3.66-4.86-5.75-1.91-8.26,4.22-6.34,8.87-2.14-.98-3.44-2.63-5.95-1.53-5.14,2.26-1.75,8.12-2.03,8.52-1.16,1.61-13.02-.14-5.01,12.01-.61.13-1.4-.13-2,0-8.18,1.82-1.53,10.49-2,10.99-.35.37-4.48-.44-5.03,3.57s3.56,5.95,2.03,9.44c-4.21-.23-4.78,5.47-2.02,8.56,1.04,1.17,2.91,1.33,3.01,1.46.5.69-7.87,11.16,2.01,13.97-.41.38-1.15,4.57-1.09,5.5.44,6.66,6.65,4.96,11.09,4.5-1.32,3.11-4.83,5.45-2.51,10.02,1.86,3.67,7.39,2.13,10.51,1.98-1.8,11.14,4.34,15.14,12.99,8-1.33,12.67,17.94,9.41,14.57-1.05-2.34-7.27-10.27-5.72-14.55-.95.62-4.55-1.96-10.22-7.01-10-1.61.07-3.31.89-4.51,1.98,1.23-5,1.1-10.24-5.1-10.97-2.21-.26-3.25.87-4.39.99,1.44-3.39,2.03-3.91,2-8,7.25-.79,4.83,1.42,6.17,5.32,1.04,3,6.33,2.25,8.82,1.68-1.59,8.44,6.21,11.42,11.99,6,1.23,11.35,6.86,4.85,10.36,5.19,1.65.16,3.15,2.52,5.23,2.82,9.23,1.33,10.71-13.27,1.77-13.72-2.88-.14-5.46,2.81-6.71,2.6-1.35-.23-2.62-3.31-4.36-3.76-2.18-.56-3.96,1.05-5.64.92-.48-.04-4.61-4.19-7.71-5.49-1.6-.67-4.32-.31-4.79-.69-.33-.27-.47-3.89-2.06-5.44-1.85-1.81-4.15-1.01-4.87-1.63-.62-.53.03-3.05-1.82-3.72-5.19-1.88-7.42,2.53-7.38,6.92-1.46-.86-3.33-1.26-5-1-.47-3.46,3.5-5.23,3.01-7.43-.08-.35-5.05-3.83-5.08-4.15-.14-1.88,3.54-4.2,1.57-8.41-.3-.64-1.35-.78-1.5-1.01-2.32-3.69,1.93-3.54,2.12-7.51.04-.87-1.87-7.19-2.12-7.49,6.3.42,7.83-5.62,4-10,7.94-1.63,4.51-6.22,6.18-8.82.34-.53,2.8-.77,3.82-1.68,1.25-1.12,1.64-2.7,2.73-3.53,2.76-2.1,7.37-1.16,6.28-6.96,5.37,4.75,12.34-2.73,17.99-3,1.57-.07,4.02,1.57,5.99.99.81-2.08-2.14-4.08-1.91-5.36.15-.85,4.56-4.02,2.91-5.63-.82-.8-5.6.99-5.99,1.99ZM427.47,448.69c-8.44,2.53-7.28,17.6,3.65,16.51,11.67-1.17,8.11-20.04-3.65-16.51ZM392.76,458.5c-.69-1.86-3.12-2.96-4.99-2.99-1.21.56,3.98,2.38,4.99,2.99-.22.31-1.74,6.79-1.72,7.34.15,3.56,3.84,8.64,7.43,9.45,15.58,3.54,17.41-21.76.75-19.87-1.04.12-6.25,2.79-6.46,3.08ZM418.51,464.73c-10.06,2.6-6.59,20.22,5.53,16.56,9.55-2.88,6.09-19.56-5.53-16.56ZM407.74,489.5c-2.35-.99-2.17-3.97-3.52-5.96-3.76-5.54-13.51-6.01-16.88.05-5.93,10.65,4.8,20.47,14.36,13.36,2.52-1.88,3.09-5.34,6.05-5.44-.37,13.47,18.23,10.94,17.09-1.52-.76-8.32-15.26-9.01-17.1-.49ZM568.76,501.5c-4.68,1.66-7.75,5.01-6,10,.86,2.45.83,1.65,2,3,.4.46.58,1.44,1,2-8.35-.35-10.17,5.12-7,12-17.26-.84-9.28,19.04,1.75,14.25,5.14-2.23,5.33-9.17,2.25-13.25,9.58.29,12.84-6.28,6-12,9.53-.03,13.09-11.11,4-15-.49-3.08,2.93-2.06,4.45-4.04,2.9-3.8.47-10.82-4.19-11.78-8.77-1.81-13.53,10.09-4.26,14.82ZM433.51,487.67c-10.86,1.78-7.72,16.92,3.5,14.65,8.05-1.62,6.68-16.32-3.5-14.65ZM386.07,504.81c-8.53,9.18,3.57,25.9,14.75,16.26s-5.52-26.18-14.75-16.26ZM414.76,522.5c-6.86,4.05-11.16,14.55-2.27,18.77,10.67,5.06,17.81-10.04,7.61-16.64-1.2-.78-2.48-.7-3.33-1.12,2.72-6.27,8.65-7.08,4.77-15.27-4.61-9.73-17.52-3.66-15.55,6.53,1.12,5.8,4.62,5.73,8.79,7.74ZM430.46,503.71c-6.97,2.1-8.58,14.71,2.03,15.58,11.81.97,11.2-19.57-2.03-15.58ZM433.48,520.7c-8.22,1.83-8.37,16.32,3.56,13.58,7.33-1.68,6.82-15.9-3.56-13.58ZM392.48,527.69c-15.35,3.33-2.31,29.31,9.2,19.23,9.04-7.91,1.92-21.65-9.2-19.23ZM444.76,549.5c-2.43,4.26-7.02,9.57-1.53,14.03,8.01,6.5,18.57-5.93,11.22-12.7-3.46-3.19-6.1-1.21-9.69-1.32.75-1.31,2.43-2.49,2.78-3.7,3.54-12.37-12.76-14.57-14.61-3.54-1.33,7.93,6.74,7.09,11.83,7.24ZM525.65,547.4c1.13-1.3,1.76-13.31-5.32-12.89-10.02.59-7.5,15.57-1.34,14.83.6-.07,6.43-1.68,6.66-1.94ZM531.76,571.5c.96.24,3.74-.29,4,0,.41.44-1.53,8.13,4.02,10.48,9.55,4.05,13.89-9.8,9.44-16.45-1.01-1.51-3.53-1.98-3.52-2.59.1-4.76,9.84-9.04,5.34-18.22-.52-1.06-6.84-5.14-7.8-5.24-.62-.07-8.09,1.79-8.38,2.12-.58.67.13,3.66-.11,4.9-7.83-1.84-9.83,4.28-9.99,11-3.84-3.24-7.93-6.66-11.41-.92-5.45,8.99,6.25,17.32,11.41,6.92l2,6c-5.73-.09-12.31,14.46-1.01,17.56,7.69,2.11,12.25-10.46,6.01-15.56ZM565.76,555.5c-2.87-.7-3.59-1.98-4.45-2.09-17.02-2.1-11.74,22.33,2.45,15.59,4.41-2.09,2.75-9.79,2-13.5,8.16,2,15.17,1.06,12.78-9.29-1.95-8.43-16.76-9.02-14.72,4.75.29,1.93,1.68,3.3,1.93,4.55ZM419.47,543.69c-8.38,2.47-7.84,21.01,5.31,18.43,11.9-2.34,8.15-22.39-5.31-18.43ZM396.03,570.22c2.18,2.2,10.02,3.25,12.71,1.77,2.98-1.63,4.46-9.68,3.95-12.92-1.37-8.81-19.67-9.76-19.99.88-.06,1.86,2.07,9,3.33,10.27ZM500.04,556.8c-3.82,3.07-3.52,11.18,2.43,12.5,14.23,3.15,8.22-21.07-2.43-12.5ZM425.76,576.5c-8.85-3.6-18.08-1.6-18.08,9.5,0,14.4,19.84,12.08,20.14-1.04.07-3.09-1.69-5.19-2.06-8.46,4.66,1.9,5.8,6.45,12.92,2.41,7.18-4.08,4.55-15.79-2.65-17.24-9.49-1.91-11.07,7.7-10.26,14.83ZM469.76,573.5c0,.54-1.06,1.99-1.06,3.49,0,11.1,14.13,11.01,14.14,0,0-9.16-6.96-9.13-13.08-4.5.29-15.55-15.83-12.97-15.86-1.5-.02,9.51,11.16,8.14,15.86,2.5ZM379.77,571.5c-.17,3.51,2.48,6.41,4.5,8.98-1.06-3-1.5-7.15-4.5-8.98ZM489.47,573.69c-5.2,1.54-6.9,12.55-1.48,15.06,13.17,6.1,15.17-19.13,1.48-15.06ZM507.49,574.67c-12.79,2.65-5.25,22.63,5.18,16.24,7.7-4.71,4.26-18.21-5.18-16.24ZM446.46,577.72c-7.81,1.79-8.73,16.51-.13,17.74,15.88,2.27,15.34-21.23.13-17.74ZM386.75,584.49c.33-1.46-.42-2.09-1.5-2.97-.43.99,1.03,3.95,1.5,2.97ZM559.44,599.19c8.62-9.25-4.49-24.32-13.13-12.63-8.46,11.47,5.75,20.55,13.13,12.63ZM473.44,588.82c-7.08-6.47-18.37,1.73-13.45,11.95,5.56,11.55,23.51-2.75,13.45-11.95ZM486.51,592.69c-14.58,1.27-8.46,25.77,5.77,16.84,8.3-5.21,2.16-17.52-5.77-16.84ZM408.41,596.85c-13.74-13.91-25.61,15.96-8.05,17.65,9.21.88,14.24-11.39,8.05-17.65ZM442.44,595.82c-7.25-7.93-20.96,2.89-13.68,13.19,8.18,11.58,21.89-4.2,13.68-13.19ZM506.47,594.71c-8.67,1.95-10.27,17.17,1.82,17.83,16.24.88,12.01-20.94-1.82-17.83ZM456.51,606.72c-12.63,2.1-9.2,21.69,4.53,18.57,7.91-1.8,9.18-20.84-4.53-18.57ZM419.48,614.65c-6.3,1.69-6.51,15.73,2.67,14.85,10.07-.96,5.44-17.03-2.67-14.85ZM375.76,619.49c1.89.4,2.7-1.27,3.97-2.5-1.08-.24-4.82,2.1-3.97,2.5ZM380.74,630.49c.72-1.4-.63-2.67-.98-1.99-.72,1.4.63,2.67.98,1.99ZM398.48,628.69c-14.71,3.25-9.11,31.72,6.65,23.68,3.14-1.6,8.52-9.67,8.34-13.22-.31-5.83-9.4-11.7-14.98-10.46ZM382.25,631.52l-.47.47,2.49,2.49.47-.47-2.49-2.49ZM350.26,652.5v1c.65-.33.65-.67,0-1ZM352.25,654.52c3.62,5.81,9.5,9.92,14.02,14.96-3.62-5.8-9.5-9.92-14.02-14.96ZM451.48,659.69c-18.02,3.99-5.33,32.76,9.23,23.26s3.89-26.17-9.23-23.26ZM387.32,690.09c1.58-2.7,2.98-5.43,3.43-8.58l-6.98,10.51,1.98,1.48c-.86-2.37,1.18-2.74,1.57-3.41ZM426.52,687.66c-1.26.2-3.53,1.63-4.69,2.41-18.21,12.3,5.46,34.25,15.78,16.78,4.86-8.23-3.98-20.32-11.09-19.2ZM398.5,688.71c-14.58,2.84-10.21,27.23,5.55,23.57,12.58-2.92,9.36-26.47-5.55-23.57ZM383.26,694.5v1c.65-.33.65-.67,0-1ZM372.74,713.5c.12-.14.15-2.26.95-3.52,1.72-2.69,4.39-5.31,5.05-8.47l-7.98,10.51c-.75,1.76,1.56,1.95,1.98,1.49ZM367.26,718.5v1c.65-.33.65-.67,0-1Z"/>
    <path class="st11" d="M538.76,486.5c3.07-.46,7.28-2.93,6.9,2.51-.12,1.8-1.55,2.94-1.72,4.2-.24,1.81.99,3.57.76,5.63-.62,5.52-1.13,10.48-7.93,9.66.35,3.57,4.47,3.68,2.5,7.97-1.81,3.93-6.07,4.71-9.78,2.98-1.13-.53-.18-2.34-1.72-1.95.49,3.3,3.25,5.41,1.5,9-2.43,4.97-9.13,1.62-9.5,1.99-.33.33.4,3.76-3.3,5.29-2.47,1.02-3.7-.24-5.07.03-7.14,1.41-14.65,3.72-21.96-.5-1.63-.94-1.92-3.19-3.34-3.66-1.58-.52-4.16.32-5.41-.61-.91-.68-.58-2.68-1.17-3.3-.72-.76-3.51-.38-5.23-2.28-2.88-3.18-.42-6.57-.62-6.88s-3.24-.59-3.8-2.8c-.43-1.69.82-3.28.59-4.63-.35-2.08-4.13-6.75,2-8.5,5.94-1.69,3.69,4.72,4.53,8.09,2.56,10.21,16.68,16.32,26.43,16.35,2.13,0,12.63-1.96,14.06-2.88.67-.43,1.09-2.44,2.19-3.29,2.12-1.64,12.98-11.18,13.84-12.67.59-1.03.14-3.17.74-4.75,3.23-8.51,1.94-7.67,2.5-15.02.65-.06,1.37.09,2,0Z"/>
    <path class="st13" d="M524.76,557.5c.16-6.72,2.16-12.85,9.99-11,.24-1.24-.47-4.24.11-4.9.28-.33,7.76-2.19,8.38-2.12.95.1,7.28,4.18,7.8,5.24,4.5,9.18-5.24,13.46-5.34,18.22-.01.62,2.51,1.08,3.52,2.59,4.45,6.64.11,20.49-9.44,16.45-5.55-2.35-3.61-10.05-4.02-10.48-.27-.29-3.04.24-4,0-1.54-.38-4.61-1.99-5-2l-2-6c1.67-3.36-.05-3.83,0-6Z"/>
    <path class="st11" d="M460.76,528.5c-.04-4.39,2.19-8.8,7.38-6.92,1.85.67,1.2,3.19,1.82,3.72.72.62,3.02-.18,4.87,1.63,1.59,1.55,1.73,5.18,2.06,5.44.47.38,3.19.02,4.79.69,3.1,1.3,7.23,5.45,7.71,5.49,1.68.13,3.46-1.48,5.64-.92,1.74.45,3.01,3.52,4.36,3.76,1.24.21,3.83-2.74,6.71-2.6,8.95.45,7.46,15.04-1.77,13.72-2.08-.3-3.58-2.66-5.23-2.82-3.5-.34-9.12,6.17-10.36-5.19-5.78,5.42-13.59,2.44-11.99-6-2.49.57-7.79,1.32-8.82-1.68-1.34-3.9,1.07-6.12-6.17-5.32,0-.52-.99-1.85-1-3Z"/>
    <path class="st5" d="M407.74,489.5c1.84-8.52,16.34-7.84,17.1.49,1.14,12.46-17.46,14.99-17.09,1.52-2.96.1-3.53,3.56-6.05,5.44-9.56,7.11-20.28-2.71-14.36-13.36,3.37-6.06,13.12-5.59,16.88-.05,1.35,1.99,1.17,4.97,3.52,5.96Z"/>
    <path class="st5" d="M495.76,449.5c-.52,1.33-.14,6.04-1,8-5.65.27-12.62,7.75-17.99,3,1.09,5.81-3.52,4.87-6.28,6.96-1.09.83-1.48,2.41-2.73,3.53-1.02.91-3.48,1.15-3.82,1.68-1.67,2.6,1.76,7.19-6.18,8.82-1.17.24-2.84-.25-4,0-8.01-12.15,3.85-10.4,5.01-12.01.28-.39-3.1-6.26,2.03-8.52,2.51-1.1,3.81.55,5.95,1.53-1.92-4.65.59-10.78,6.34-8.87,2.51.83,1.55,4.46,3.66,4.86-4.79-10.44,13.06-14.75,19.01-8.99Z"/>
    <path class="st12" d="M531.76,344.5h-13c5.89,14.54-16.32,29.59-22.74,12.24-2.94-7.95-.06-8.17,2.73-14.24.3-.65.72-1.04,1-2,3.17.72,5.54-2.05,8.39-1.97,2.57.08,5.04,2.26,7.35,2.72,5.17,1.03,11.58.52,16.25,3.25Z"/>
    <path class="st5" d="M619.76,397.5c0,.33-.04.68,0,1,.46,3.29,2.43,5.62,1.98,9.41-1.1,9.26-12.88,16.6-20.98,10.59-1.52-1.13-4.81-7.55-4.97-9.62-.38-5.03,5.62-12.51,10.52-13.31,5.52-.9,8.35,1.61,13.45,1.94Z"/>
    <path class="st6" d="M459.76,714.5c-9.11-1.63-17.5-2.47-17.09-14.51.64-18.67,31.02-11.44,23.98,5.91-1.43,3.53-7.5,6.95-6.9,8.6Z"/>
    <path class="st4" d="M585.5,373.73c20.89-3.6,19.26,26.72-.18,23.7-13.42-2.08-11.64-21.67.18-23.7Z"/>
    <path class="st6" d="M426.52,687.66c7.11-1.12,15.95,10.96,11.09,19.2-10.32,17.46-33.99-4.49-15.78-16.78,1.17-.79,3.43-2.21,4.69-2.41Z"/>
    <path class="st12" d="M427.76,354.5v1l-2.99,4.99c11.99-3.38,14.17,7.84,9.5,17.01-3.55,6.97-11.36,6.35-16.56,1.54-6.19-5.73,1.14-10.27-4.95-14.55.15-.2-.13-.7,0-1,.43-1.02.81-1.88,1-3,4.25-1.42,7.97-4.04,12-6,.44-.21,1.54.21,2,0Z"/>
    <path class="st2" d="M623.76,491.5c.03-1.27.71-3.03,1.24-4.23,6.48-14.58,31.6-4.54,20.76,12.23-.39.6-1.08,1.04-1,2-1.76-.09-3.59,1.64-5.55,1.94-7.35,1.11-15.66-4.06-15.45-11.94Z"/>
    <path class="st14" d="M643.76,525.5c-.01.07-.73.43-1,1-6.34,13.48-23.33,7.88-23-6,.38-15.76,27.77-13.16,24,5Z"/>
    <path class="st12" d="M543.76,346.5c.1.05.41,1.23,1,2,.28.37.84.7,1,1,1.4,2.71,2.71,8.07,2,11-.11.44-4.49,6.98-5.05,7.44-9.91,8.16-24.77-7.27-14.94-18.93.55-.66,3.58-3.4,3.99-3.51,1.45-.38,10.77.41,12,1Z"/>
    <path class="st14" d="M398.48,628.69c5.58-1.23,14.68,4.63,14.98,10.46.19,3.55-5.2,11.61-8.34,13.22-15.76,8.04-21.35-20.43-6.65-23.68Z"/>
    <path class="st4" d="M557.76,379.5c.29.25.5.88,1,1,10.54,9.66-3.15,28.37-14.53,18.03-5.38-4.89-1.75-17.25,5.24-18.82,1.68-.38,6.75-.59,8.29-.21Z"/>
    <path class="st4" d="M573.76,359.5c3.99,11.54-.92,24.49-15,21-.29-.27-.5-.88-1-1-4.34-3.75-5.53-13.29-3-18,.18-.34,5.53-4.78,6-5,.19-.09,3.79-1,4-1,2.4.04,6.31,2.89,9,4Z"/>
    <path class="st12" d="M484.76,340.5c-.07.92.68,1.42,1,2,2.51,4.57,3.72,6.57,2.55,12.06-3.79,17.73-28.57,8.14-19.55-10.06.44-.9,1.44-1.5,1-3,7.34-1.39,7.98-1.09,15-1Z"/>
    <path class="st14" d="M398.5,688.71c14.91-2.9,18.14,20.65,5.55,23.57-15.76,3.66-20.13-20.74-5.55-23.57Z"/>
    <path class="st14" d="M626.76,560.5c-15.79,1.21-16.09-2.53-17-16,.88-1.45,1.46-2.03,1-4,3.1.99,4.88-1.91,6.95-2.55,7.56-2.33,15.73,5.07,14.86,12.78-.54,4.81-3.99,6.43-5.82,9.77Z"/>
    <path class="st14" d="M609.76,540.5c.1,1.32-.09,2.68,0,4-7.13,11.69-24.21,1.64-18-9,.21-.37,4.54-3.8,5.3-4.2,8.63-4.5,12.11,1.11,12.7,9.2Z"/>
    <path class="st12" d="M454.76,347.5c15.77,10.21,3.16,29.89-9.33,21.83-6.97-4.5-5.27-13.22-2.67-19.83,2.14-.85,6.85-3.92,8-4,1.55-.1,2.8,1.22,4,2Z"/>
    <path class="st8" d="M571.76,460.5c.89,3.32-.91,6.08-2,9-3.54.24-2.51.4,0,1,3.7.89,3.82,1.07,7,3,5.87,14.32-17.97,16.91-14.81,2.72.52-2.35,2.92-3.32,2.8-5.72-14.62.63-7.22-22.04,3.52-14.02.56.41,3.4,3.71,3.48,4.01Z"/>
    <path class="st4" d="M535.45,390.19c-8.62,7.97-23.42-3.77-15.12-15.62,5.07-7.23,17.12-4.58,18.38,3.49.54,3.48-.61,9.67-3.26,12.13Z"/>
    <path class="st12" d="M394.76,378.5c.09-.16,1.38-1.18,2-2,11.02-4.79,20.39,5.15,15.21,15.72-6.28,12.81-26.04,1.38-17.21-13.72Z"/>
    <path class="st2" d="M621.76,491.5c.87,5.54-6.4,13.38-12.44,12.97-5.13-.34-10.6-9-9.56-13.97.66-3.13,6.83-9.07,10.5-9.06,4.49.01,10.87,6.03,11.5,10.06Z"/>
    <path class="st5" d="M386.07,504.81c9.23-9.93,25.77,6.75,14.75,16.26s-23.28-7.08-14.75-16.26Z"/>
    <path class="st5" d="M581.76,432.5c-5.22-3.37-5.37-13.14.23-17.27,7.67-5.65,12.34.01,17.77,5.27-.62,4.24-1.18,9.36-5.61,11.89-2.68,1.53-9.95,1.69-12.39.11Z"/>
    <path class="st12" d="M501.47,366.71c14.64-3.33,18.12,19.06,3.69,20.77-14.67,1.74-14.37-18.34-3.69-20.77Z"/>
    <path class="st5" d="M568.5,394.75c15.51-3.99,17.8,18.03,5.52,20.52-15.12,3.07-15.61-17.92-5.52-20.52Z"/>
    <path class="st2" d="M425.76,576.5c.37,3.26,2.13,5.36,2.06,8.46-.3,13.12-20.14,15.44-20.14,1.04,0-11.1,9.23-13.1,18.08-9.5-.8-7.13.78-16.74,10.26-14.83,7.2,1.45,9.83,13.16,2.65,17.24-7.12,4.04-8.26-.51-12.92-2.41Z"/>
    <path class="st10" d="M392.48,527.69c11.12-2.41,18.24,11.32,9.2,19.23-11.51,10.07-24.55-15.9-9.2-19.23Z"/>
    <path class="st12" d="M464.41,375.85c9.07,9.52-5.35,26.49-15.1,14.6-7.97-9.72,5.66-24.51,15.1-14.6Z"/>
    <path class="st8" d="M396.03,570.22c-1.26-1.27-3.38-8.41-3.33-10.27.32-10.64,18.62-9.69,19.99-.88.5,3.24-.97,11.29-3.95,12.92-2.69,1.48-10.53.43-12.71-1.77Z"/>
    <path class="st12" d="M432.46,383.71c17.04-3.9,15.71,19.49,2.69,20.77-11.21,1.11-13.17-18.38-2.69-20.77Z"/>
    <path class="st2" d="M473.76,547.5c5.05-.22,7.63,5.45,7.01,10,4.29-4.77,12.21-6.32,14.55.95,3.37,10.46-15.9,13.72-14.57,1.05-8.65,7.14-14.79,3.14-12.99-8,1.99-.09,4.01.07,6.01,0v-4Z"/>
    <path class="st2" d="M408.41,596.85c6.18,6.26,1.15,18.53-8.05,17.65-17.55-1.69-5.69-31.56,8.05-17.65Z"/>
    <path class="st4" d="M409.49,434.67c17.03-3.44,17.42,25-.47,19.05-9.5-3.16-7.76-17.39.47-19.05Z"/>
    <path class="st4" d="M392.76,458.5c.21-.29,5.43-2.96,6.46-3.08,16.66-1.89,14.83,23.41-.75,19.87-3.59-.82-7.28-5.89-7.43-9.45-.02-.55,1.5-7.03,1.72-7.34Z"/>
    <path class="st12" d="M411.46,397.7c7.11-2.16,16.7,6.27,13.54,13.54-5.93,13.63-22.47,2.49-19.85-6.77.43-1.54,4.83-6.33,6.31-6.78Z"/>
    <path class="st14" d="M597.76,566.5c1.67-.92,2.71-2.04,4.76-2.73,6.45-2.17,15.12-.06,15.24,7.73.05,3.66-2.25,4.87-3,8-4.04,1.74-13.17-.02-16,1-3.31-5.42-1.13-8.96-1-14-2,1.09-3.28,3.23-5.71,3.8-14.4,3.34-19.08-19.37-2.78-18.88,8.62.26,8.67,8.14,8.49,15.08Z"/>
    <path class="st12" d="M477.48,367.69c13.29-2.93,16.3,19.45,2.52,20.62-10.74.91-13.73-18.15-2.52-20.62Z"/>
    <path class="st14" d="M618.76,520.5c-6.05,9.86-21.4,8.18-20-5,1.41-13.21,21.94-8.98,20,5Z"/>
    <path class="st4" d="M504.62,430.63c.6.39.99,3.79,1.15,4.86,2.26-1.46,1.94-3.72,5.55-3.96,12.85-.84,6.24,16.5-.6,14.56-1.88-.53-3.56-3.32-4.61-3.5s-3.94,3.01-9.45,1.45c-4.41-1.25-4.11-12.7.59-13.55,1.17-.21,6.77-.26,7.37.13Z"/>
    <path class="st4" d="M434.44,419.82c8.22,7.52-4.72,24.18-14.23,13.72-8.73-9.6,5.87-21.37,14.23-13.72Z"/>
    <path class="st14" d="M456.51,606.72c13.71-2.27,12.44,16.77,4.53,18.57-13.73,3.12-17.16-16.48-4.53-18.57Z"/>
    <path class="st4" d="M393.76,415.5c.28-.28.87-.94,1-1,9.64-4.55,20.01,15.76,8.05,19.55-11.2,3.55-16.19-11.45-9.05-18.55Z"/>
    <path class="st14" d="M559.44,599.19c-7.37,7.92-21.59-1.17-13.13-12.63,8.63-11.69,21.74,3.38,13.13,12.63Z"/>
    <path class="st14" d="M442.44,595.82c8.21,8.99-5.5,24.77-13.68,13.19-7.28-10.3,6.43-21.12,13.68-13.19Z"/>
    <path class="st14" d="M506.47,594.71c13.83-3.11,18.06,18.71,1.82,17.83-12.09-.66-10.49-15.88-1.82-17.83Z"/>
    <path class="st4" d="M442.48,404.69c10.28-2.27,17.11,12.58,6.55,17.57-13.62,6.44-18.36-14.96-6.55-17.57Z"/>
    <path class="st8" d="M419.47,543.69c13.46-3.97,17.21,16.09,5.31,18.43-13.15,2.58-13.69-15.96-5.31-18.43Z"/>
    <path class="st14" d="M581.76,580.5c-3.05-.2-3.18,2.91-4.73,4.04-.58.42-6.86,3.94-7.27,3.96-1.71.08-6.52-3.26-6.98-5.52-2.77-13.91,12.3-20.09,18.2-7.18.81,1.77.47,4.04.77,4.7Z"/>
    <path class="st10" d="M587.76,447.5c.83.84,2.33,3.57,3,4,.25,2.05-.06,3.79-.77,5.71-1.36,3.65-4.66,3.61-4.23,7.29-.59.02-1.77-.14-2,0,.82-3.53-3.49-1.44-6.46-2.05-1.65-.34-2.83-1.78-4.54-1.95-1.14-4.64-.96-11.73,4-14,5.35-2.45,6.85-.19,11,1Z"/>
    <path class="st14" d="M446.46,577.72c15.21-3.5,15.75,20.01-.13,17.74-8.61-1.23-7.68-15.94.13-17.74Z"/>
    <path class="st14" d="M486.51,592.69c7.93-.69,14.07,11.62,5.77,16.84-14.23,8.94-20.36-15.57-5.77-16.84Z"/>
    <path class="st8" d="M416.76,523.5c.86.43,2.14.35,3.33,1.12,10.2,6.6,3.07,21.71-7.61,16.64-8.89-4.22-4.59-14.72,2.27-18.77.67.32,1.33.67,2,1Z"/>
    <path class="st8" d="M552.76,476.5c13.19-.51,3.75,10.14,3.93,12.44.05.61,2.16.99,2.97,2.14,2.82,3.97-.78,10.12-5.9,9.42-.96-.68-2.48-.65-3-1-8.44-5.66-.03-9.04-.02-10.5,0-.67-8.17-6.34-1.98-11.5,1.17.24,2.25.79,3.42,1.04.96-.14.41-1.55.58-2.04Z"/>
    <path class="st5" d="M528.76,446.5c5.82-7.44,14.65.16,9,6.99,3.99-.22,8.2-.67,9.58,3.98,1.24,4.16-.85,4.18-2.58,7.03-7.31-.62-9.96,2.26-9.01-8-5.63,2.6-10.04-.88-8.99-7,.22-1.26,1.27-2.07,2-3Z"/>
    <path class="st4" d="M521.52,393.68c12.8-1.67,12.73,23.6-3.51,17.06-8.25-3.32-5.15-15.93,3.51-17.06Z"/>
    <path class="st12" d="M461.49,395.67c9.67-2.02,15.6,13.6,5,17.06-15.14,4.93-14.86-14.99-5-17.06Z"/>
    <path class="st5" d="M539.51,400.67c11.56-1.9,13.12,15.06,4.54,17.61-13.4,3.98-16.37-15.67-4.54-17.61Z"/>
    <path class="st5" d="M556.52,412.68c8.81-1.15,13.23,11.85,4.14,17.24-12.19,7.23-18.13-15.41-4.14-17.24Z"/>
    <path class="st14" d="M473.44,588.82c10.06,9.19-7.89,23.49-13.45,11.95-4.92-10.22,6.37-18.42,13.45-11.95Z"/>
    <path class="st10" d="M446.76,505.5c1.64.09,4.61,1.88,7,1,.14.23,1.2.37,1.5,1.01,1.98,4.2-1.7,6.52-1.57,8.41.02.33,5,3.8,5.08,4.15.49,2.2-3.48,3.97-3.01,7.43-.54.09-5.77,1.79-6,2-9.88-2.82-1.51-13.28-2.01-13.97-.1-.14-1.97-.3-3.01-1.46-2.76-3.09-2.19-8.79,2.02-8.56Z"/>
    <path class="st12" d="M499.47,390.71c14.08-3.16,16.95,20.74-1,16.57-7.14-1.66-6.35-14.92,1-16.57Z"/>
    <path class="st5" d="M416.76,523.5c-.67-.33-1.33-.68-2-1-4.17-2.01-7.67-1.94-8.79-7.74-1.97-10.19,10.94-16.26,15.55-6.53,3.88,8.2-2.04,9.01-4.77,15.27Z"/>
    <path class="st5" d="M579.76,433.5c.77,2.88-.71,8.06-3,10-6.64,5.63-15.77-1.47-13.79-10.28s14.92-6.68,16.79.28Z"/>
    <path class="st8" d="M585.76,464.5c14.12-.54,12.91,16.64,4,18-4.16.64-10.59-4.29-11-8-.36-3.24,2.39-6.46,4.63-8.39.51-.44.3-1.56.37-1.61.23-.14,1.41.02,2,0Z"/>
    <path class="st4" d="M479.46,390.71c12.85-3.84,16.68,20.42-.15,17.81-6.44-1-6.93-15.69.15-17.81Z"/>
    <path class="st2" d="M590.76,484.5c2.53.13,7.44,3.9,8,6,1.95,7.36-6.27,14.84-12.96,10.45-7.74-5.08-3.38-16.88,4.96-16.45Z"/>
    <path class="st2" d="M596.76,515.5c-3.41,1.97-3.5,7.29-11,6-6.09-1.05-8.56-8.06-4.84-13.35,5.82-8.27,16.87-1.86,15.84,7.35Z"/>
    <path class="st4" d="M418.51,464.73c11.63-3,15.09,13.68,5.53,16.56-12.13,3.66-15.59-13.96-5.53-16.56Z"/>
    <path class="st14" d="M585.76,523.5c2.65.96,4.65,9.21,5,12-6.8,7.81-18.92,7.34-16.95-5.44.82-5.29,7.33-8.23,11.95-6.56Z"/>
    <path class="st14" d="M507.49,574.67c9.45-1.96,12.88,11.54,5.18,16.24-10.43,6.38-17.98-13.59-5.18-16.24Z"/>
    <path class="st4" d="M427.47,448.69c11.76-3.53,15.33,15.34,3.65,16.51-10.93,1.09-12.09-13.98-3.65-16.51Z"/>
    <path class="st14" d="M565.76,555.5c.76,3.72,2.41,11.41-2,13.5-14.2,6.73-19.48-17.69-2.45-15.59.86.11,1.58,1.39,4.45,2.09-.25-1.24-1.65-2.62-1.93-4.55-2.04-13.77,12.77-13.18,14.72-4.75,2.39,10.35-4.62,11.3-12.78,9.29Z"/>
    <path class="st4" d="M446.76,435.5c.32.81-.14,1.06,1,2,2.29,7.49-.69,13.72-9.29,11.78-10.13-2.28-3.52-19.78,8.29-13.78Z"/>
    <path class="st4" d="M447.76,437.5c-.27-.89.35-1.31-1-2-2.09-5.3.11-9.97,5.26-12.25,8.2-3.62,14.56,12.67,4.8,15.8-2.74.88-6.89.24-9.05-1.55Z"/>
    <path class="st14" d="M531.76,571.5c6.23,5.1,1.68,17.67-6.01,15.56-11.3-3.1-4.71-17.65,1.01-17.56.39,0,3.46,1.62,5,2Z"/>
    <path class="st2" d="M444.76,549.5c3.59.11,6.23-1.86,9.69,1.32,7.35,6.77-3.21,19.21-11.22,12.7-5.49-4.46-.89-9.77,1.53-14.03Z"/>
    <path class="st4" d="M496.46,411.7c9.54-2.81,13.12,1.94,11.08,11.08-1.44,6.45-11.55,5.33-13.34,2.77-1.25-1.78-1.39-12.78,2.26-13.85Z"/>
    <path class="st5" d="M430.46,503.71c13.23-3.99,13.84,16.55,2.03,15.58-10.61-.87-9-13.48-2.03-15.58Z"/>
    <path class="st2" d="M469.76,572.5c0,.33,0,.67,0,1-4.7,5.64-15.88,7.01-15.86-2.5.03-11.47,16.15-14.05,15.86,1.5Z"/>
    <path class="st14" d="M558.76,528.5c1.24.06,2.78.96,4,1,3.07,4.08,2.88,11.02-2.25,13.25-11.03,4.79-19-15.09-1.75-14.25Z"/>
    <path class="st4" d="M477.93,413.67c.96-1.56,8.01-2.62,10.13-1.97,3.53,1.08,5.01,11.38,1.66,14.27-1.89,1.63-8.14,2.41-10.02,1.09-1.57-1.1-2.71-11.85-1.77-13.39Z"/>
    <path class="st4" d="M522.52,415.73c3.3,3.29,1.05,15.27-6.13,14.74-11.45-.84-6.29-16.78-.15-16.87,1-.01,5.67,1.51,6.28,2.13Z"/>
    <path class="st14" d="M489.47,573.69c13.69-4.07,11.69,21.17-1.48,15.06-5.42-2.51-3.72-13.52,1.48-15.06Z"/>
    <path class="st4" d="M470.54,415.68c5.77-.24,8.08,13.24,1.27,15.36-12.47,3.87-14.88-14.79-1.27-15.36Z"/>
    <path class="st2" d="M568.76,501.5c1.67.85,3.12.62,4,1,9.09,3.89,5.53,14.97-4,15-1.35-1.13-1.3-.93-3-1-.42-.56-.6-1.54-1-2,.11-2.3.62-3.5-2-3-1.75-4.99,1.32-8.34,6-10Z"/>
    <path class="st4" d="M536.76,434.5c-15.64,8.29-16.36-15.3-3.59-14,9.48.97,4.15,9.61,3.59,14Z"/>
    <path class="st5" d="M433.51,487.67c10.18-1.67,11.55,13.03,3.5,14.65-11.23,2.27-14.36-12.88-3.5-14.65Z"/>
    <path class="st5" d="M536.76,434.5c.25-.13,1.05.24,1.73-.24.92-.66,1.06-2.91,3.53-4.02,7.85-3.52,14.08,8.25,5.7,13.71-6.97,4.55-11.88-2.26-10.96-9.45Z"/>
    <path class="st14" d="M469.76,573.5c0-.33,0-.67,0-1,6.12-4.63,13.09-4.66,13.08,4.5,0,11-14.14,11.09-14.14,0,0-1.5,1.05-2.95,1.06-3.49Z"/>
    <path class="st8" d="M444.76,549.5c-5.09-.16-13.16.69-11.83-7.24,1.85-11.03,18.15-8.83,14.61,3.54-.35,1.21-2.03,2.39-2.78,3.7Z"/>
    <path class="st11" d="M568.76,501.5c-9.26-4.73-4.51-16.64,4.26-14.82,4.65.96,7.09,7.98,4.19,11.78-1.52,1.99-4.94.96-4.45,4.04-.88-.38-2.33-.15-4-1Z"/>
    <path class="st10" d="M433.48,520.7c10.39-2.32,10.89,11.9,3.56,13.58-11.93,2.74-11.78-11.75-3.56-13.58Z"/>
    <path class="st11" d="M473.76,547.5v4c-1.99.07-4.01-.1-6,0-3.13.14-8.65,1.69-10.51-1.98-2.32-4.57,1.2-6.91,2.51-10.02,1.13-.12,2.18-1.25,4.39-.99,6.2.73,6.34,5.97,5.1,10.97,1.2-1.09,2.9-1.91,4.51-1.98Z"/>
    <path class="st10" d="M549.99,454.26c-6.1-6.1,4.98-18,11.23-10.73,6.54,7.61-5.9,16.06-11.23,10.73Z"/>
    <path class="st11" d="M553.76,500.5c7.74,5.53,6.44,12.51-3,13.01,1.64,4.27,4.4,4.34,1,7.99-.8-4.87-1.5-4.33-5-7,1.86-3.49-2.17-4.75-.8-9.28.92-3.03,4.99-2.59,4.8-5.72.52.35,2.04.32,3,1Z"/>
    <path class="st3" d="M512.76,452.5c1.35.81,4.45,2.04,4.99,2.54,1.16,1.1.79,2.98,1.14,3.31.88.81,6.01-1.02,6.77,1.74.23.84-.91,2.47-.9,3.41,1.35-.02,3.62-1.59,4.84-.87.3.18.67,2.04,1.62,2.87,1.47,1.27,3.05,1.83,4.56,3.47,1.76,1.91.67,5.71,5.97,4.53.04.29.79,1.79,1,2-2.16.88.35,3.79-.09,5.36s-5.09,2.17-3.91,5.64c-.63.09-1.35-.06-2,0,.37-4.88-1.52-2.1-2.75-3.18-2.98-2.63.86-7.82.76-8.3-.28-1.33-3.81-1.38-4.55-2.51s-.06-2.98-.69-3.84-4.72.03-4.77-5.18c-4.57.06-4.85-2.95-6.31-3.67-.61-.3-5.39-2.25-5.69-2.33v-5Z"/>
    <path class="st11" d="M565.76,516.5c1.7.07,1.65-.13,3,1,6.84,5.72,3.58,12.29-6,12-1.22-.04-2.76-.94-4-1-3.17-6.88-1.35-12.35,7-12Z"/>
    <path class="st4" d="M442.76,473.5c1.78,2.4,4.46,5.71,3.28,8.69-3.53,8.86-17.66,2.86-13.76-5.68,2.46-5.38,7.24-3.03,10.48-3.01Z"/>
    <path class="st14" d="M419.48,614.65c8.12-2.17,12.75,13.9,2.67,14.85-9.19.87-8.97-13.17-2.67-14.85Z"/>
    <path class="st5" d="M447.76,459.5c.5.13.71.73,1,1,5.78,5.3,1.9,13.03-6,13-1.11-1.49-3.3-2.1-4.26-4.25-3.01-6.73,2.64-11.41,9.26-9.75Z"/>
    <path class="st2" d="M500.04,556.8c10.66-8.58,16.66,15.64,2.43,12.5-5.95-1.32-6.25-9.42-2.43-12.5Z"/>
    <path class="st5" d="M453.76,491.5c.25.3,2.16,6.63,2.12,7.49-.18,3.96-4.44,3.81-2.12,7.51-2.39.88-5.36-.91-7-1,1.53-3.5-2.58-5.37-2.03-9.44s4.68-3.2,5.03-3.57c.47-.5-6.18-9.17,2-10.99-.25,1.42-1.01,7.9-.89,8.45.29,1.43,2.72,1.33,2.89,1.55Z"/>
    <path class="st14" d="M524.76,557.5c-.05,2.17,1.67,2.64,0,6-5.16,10.4-16.86,2.08-11.41-6.92,3.48-5.75,7.57-2.33,11.41.92Z"/>
    <path class="st4" d="M484.48,430.73c4.44-.99,6.71-.88,7.83,3.71,3.01,12.31-8.57,13.25-10.36,8.37-1.42-3.86-2.63-10.93,2.53-12.08Z"/>
    <path class="st11" d="M536.76,526.5c4.25.91,3.7,6.42,9.2,3.95.93-.42.85-2.54,2.8-1.95-.87,5.36-8.55,3.54-9,4-.25.26.46,3.42-.48,5.02-2.47,4.18-14.06,4-12.34-4.28,1.48-7.11,8.52-3.78,9.83-4.73.13-.09-.04-1.41,0-2Z"/>
    <path class="st2" d="M525.65,547.4c-.23.26-6.06,1.87-6.66,1.94-6.17.74-8.68-14.23,1.34-14.83,7.08-.42,6.45,11.58,5.32,12.89Z"/>
    <path class="st2" d="M546.76,514.5c3.5,2.67,4.2,2.13,5,7-.84.9-2.88,2.3-3.01,2.75-.37,1.24.22,2.96.01,4.25-1.94-.59-1.86,1.53-2.8,1.95-5.51,2.47-4.96-3.04-9.2-3.95.49-7.65,2.94-3.91,5.77-6.23,1.91-1.57-1.31-6.94,4.23-5.77Z"/>
    <path class="st10" d="M552.76,476.5c-.17.5.38,1.9-.58,2.04-1.17-.25-2.25-.8-3.42-1.04-1.83-.38-4.6-.57-6-2-.21-.21-.96-1.71-1-2-.23-1.51-.02-3.62.43-5.09.13-.43,2-2.96,2.57-3.91,10.56.89,11.62,1.37,8,12Z"/>
    <path class="st4" d="M458.76,450.5c-.64-3.73-3.09-3.94-.45-7.93,6.49-9.78,15.82,6.85,8.18,10.18-4.95,2.15-4.65-.81-7.73-2.24,1.49,8.67-.28,14.21-10,10-.29-.27-.5-.87-1-1-2.73-10,1.84-13.24,11-9Z"/>
    <path class="st4" d="M479.58,446.33c-.66,1.07-6.55,3.07-8.35,1.19-.67-.7-3.17-7.65-3.21-8.69-.16-4.34,7.24-6.73,9.8-4.9,1.45,1.04,2.68,10.89,1.76,12.4Z"/>
    <path class="st8" d="M460.76,528.5c.01,1.15,1,2.48,1,3,.03,4.09-.56,4.61-2,8-4.43.46-10.65,2.16-11.09-4.5-.06-.93.68-5.13,1.09-5.5.23-.21,5.46-1.91,6-2,1.67-.26,3.54.14,5,1Z"/>
    <path class="st0" d="M572.76,460.5c1.72.17,2.9,1.61,4.54,1.95,2.97.61,7.28-1.48,6.46,2.05-.07.04.15,1.17-.37,1.61-2.25,1.93-4.99,5.16-4.63,8.39-.65-.36-1.37-.62-2-1-3.18-1.93-3.3-2.11-7-3v-1c1.09-2.92,2.89-5.68,2-9h1Z"/>
    <path class="st4" d="M528.76,446.5c-.73.93-1.78,1.74-2,3-6.17.32-9.05.77-7.95-6.43,1.52-9.93,13.88-5.47,9.95,3.43Z"/>
    <path class="st10" d="M453.76,481.5c1.16-.25,2.83.24,4,0,3.83,4.38,2.3,10.42-4,10-.18-.21-2.6-.12-2.89-1.55-.11-.56.64-7.04.89-8.45.6-.13,1.39.13,2,0Z"/>
    <path class="st1" d="M495.76,449.5c.39-1,5.18-2.79,5.99-1.99,1.66,1.61-2.75,4.78-2.91,5.63-.23,1.29,2.71,3.28,1.91,5.36-1.98.58-4.43-1.07-5.99-.99.86-1.96.48-6.67,1-8Z"/>
    <path class="st1" d="M512.76,457.5c-1.09-.28-4.69.34-5,0s.47-2.9-.13-3.85c-.3-.48-8.05-1.8-1.9-3.65,5.33-1.61,3.47.96,5.07,1.93.82.5,1.69.4,1.97.57v5Z"/>
    <path class="st11" d="M510.76,626.5c4.31-.11,1.77,7.23-.66,7.87-4.06,1.06-3.49-4.11-3.34-6.87,1.37-.67,3.78-.86,4-1Z"/>
    <path class="st1" d="M400.76,371.5c-.39.4-3.24,4-4,5-.62.82-1.91,1.84-2,2-4.74,2.37-11.33,8.84-15,13-.17-4.38,4.68-6.45,6.97-9.53l14.03-10.47Z"/>
    <path class="st1" d="M433.76,352.5c-1.15.59-3.89,3.24-5.51,3.98l-.49-.98v-1c.86-.39,3.74-5.19,6-2Z"/>
    <path class="st1" d="M412.76,363.5c-.13.3.15.8,0,1-1.23,1.71-8.57,5.93-11,6,3.47-3.4,7.81-3.16,7-8h1l3,1Z"/>
    <path class="st1" d="M393.76,415.5c-2.61-4.12-8.65-5.46-9.51-9.98l10.51,8.98c-.13.06-.72.72-1,1Z"/>
    <path class="st11" d="M562.76,511.5c2.62-.5,2.11.7,2,3-1.17-1.35-1.14-.55-2-3Z"/>
    <path class="st3" d="M623.76,568.5l-2,1c.97-.74,1.93-.91,2-1Z"/>
    <path class="st1" d="M392.76,458.5c-1.01-.61-6.2-2.43-4.99-2.99,1.87.03,4.31,1.13,4.99,2.99Z"/>
    <path class="st3" d="M607.25,381.52c2.1,2.59,5.93,4.72,7.02,7.96-2.11-2.59-5.92-4.71-7.02-7.96Z"/>
    <path class="st3" d="M616.25,390.52c.55.64,2.01,1.3,1.02,1.96-.48-.59-2.01-1.26-1.02-1.96Z"/>
    <path class="st9" d="M620.76,591.5c.17.28,6.05,1.94,0,3,.2-.84-.13-2.06,0-3Z"/>
    <path class="st9" d="M546.76,348.5c-.25.06-.62.8-1,1-.16-.3-.72-.63-1-1h2Z"/>
    <path class="st10" d="M614.76,443.5c-.96-1.05-1.46-4.22-2.21-4.83-.59-.48-1.52-.03-1.79-.17-.05,1.81,1.02,3.67,1,5-.15,13.41-10.58,13.77-20,8,.41-1.41-.93-3.12-1-4-.55-6.89,3.75-13.86,11.23-12.8,2.22.31,6.58,2.63,8.77,3.8.57-22.01,26.48-20.9,27.04-4.47.25,7.4-8.47,13.36-15.29,12.25-2.67-.44-5.04-2.41-7.75-2.78Z"/>
    <path class="st8" d="M620.76,467.5c.03-1.33-.04-2.67,0-4,.17-5.43,1.37-8.24,6.07-11.43,13.91-9.45,27.33,12.52,13.26,21.26-8.24,5.12-13.5-.03-19.33-5.83Z"/>
    <path class="st8" d="M617.76,463.5c.74.97.62,2.6,2,4-.92,2.5-2.66,6.16-4.45,8.05-7.55,7.96-20.46-.64-15.79-11.8,3.38-8.07,13.28-6.7,18.25-.25Z"/>
    <path class="st9" d="M610.76,438.5c.27.14,1.2-.31,1.79.17.75.6,1.25,3.78,2.21,4.83-.96-.13-2.02.09-3,0,.02-1.33-1.05-3.19-1-5Z"/>
    <path class="st9" d="M620.76,463.5c-.04,1.33.03,2.67,0,4-.17-.17-.84.17-1,0-1.38-1.4-1.26-3.03-2-4h3Z"/>
    <path class="st9" d="M590.76,447.5c.07.88,1.41,2.59,1,4-.24-.15-.77.15-1,0-.67-.43-2.17-3.16-3-4,.77.22,2.08-.15,3,0Z"/>
    <path class="st3" d="M638.26,441.5c.65.33.65.67,0,1v-1Z"/>
    <path class="st1" d="M413.76,360.5c.55-3.16-1.24-7.57,3.03-9.49,2.36-1.06,8.9-.16,8.97,3.49-4.03,1.96-7.75,4.58-12,6Z"/>
    <path class="st9" d="M560.76,356.5l-4-4.99c2.26,0,8.2.6,8,3.99-.21,0-3.81.91-4,1Z"/>
    <path class="st9" d="M554.75,350.51c.68.35-.59,1.7-1.99.98-.68-.35.59-1.7,1.99-.98Z"/>
    <path class="st9" d="M551.26,349.5c.65.33.65.67,0,1v-1Z"/>
    <path class="st9" d="M569.76,469.5v1c-2.51-.6-3.54-.76,0-1Z"/>
    <g>
      <path class="st13" d="M691.76,568.5c.22,4.7-1.32,9.29-2,14-.05.33.05.67,0,1l-1,2c-.61,4.43-.5,4.76,0,9,.04.33-.06.68,0,1,.63,3.48.37,5.4,2.99,8.51,7.2,8.56,27.15,3.31,37.01,2.49.66-.05,1.34.06,2,0,9.77-.83,38.56-5.91,42.57,6.95,2.88,9.23-6.46,2.56-9.75,1.73-9.59-2.41-27.5.18-37.82,1.32-.68.08-1.83.86-3,1-14.37,1.71-31.56,6.03-40-10-2.41-4.57-2.12-8.75-4.5-12.98-8.12,7.16-24.12,32.2-35.96,29.97-2.83-.53-3.79-4.03-5.85-3.84-2.17.2-4.82,2.92-6.69,3.84-.61.3-2.27-.13-3,1-4.37-.53-7.13.54-11.7-1.8-2.15-1.1-6.3-5.4-6.3-7.7v-24.5c-5.01.36-6.75,8.7-9.51,10.99-1.6,1.33-4.04.76-5.01,1.99-.87,1.1-8.1,22.47-9.57,26.23-.28.71-1.61.72-1.85,1.54-1.15,4.09-.77,13.34-6.07,15.74-3.42,1.55-8.12,1.02-8.82-3.23-.79-4.83,3.5-18.51,3.82-24.77.11-2.11.89-4.07-1.97-3.48-5.54,15.8-13.95,45.43-28.67,54.84-18.16,11.61-17.68-15.63-16.34-26.84.03-.25.86-1.1,1-2,.6-3.93,6.25-25.58,4.99-27-6.12,2.45-12.33,5.32-18.2,8.32-2.16,1.1-1.66,2.59-1.8,2.68-.22.14-2.63.33-4,1-12.99,6.32-31.01,12.61-45,18-2.63,1.01-5.35,2-8,3-8.61,3.26-17.52,6.86-26,10-3.68,1.36-8.1,2.59-12,4-2.09.76-4.75,2.58-6,3-3.42,1.16-8.36.47-12.7,2.8-1.89,1.01-5.12,4.11-5.3,6.2l-40.67,16.86c-3.39-.46-2.4-2.89-1.19-5.22,3.93-7.51,30.26-15.36,38.26-19.73,2.2-1.44,1.46-4.35,2.69-6.31,1.88-2.99,9.86-5.22,12.91-2.59-3.12.93-6.63,1.66-8,4.99,3.72.33,10.17-.36,11-4.99,4.84-1.62,9.14-4.92,12-6,6.54-2.46,13.4-4.56,20-7,7.89-2.92,10.55-5.19,17-8,4.38-1.91,11.89-4.08,17-6,2.25-.85,5.53-1.17,8.26-2.24s8.68-3.1,8.74-5.76c1.57,1.31,2.59.15,3.98-.45,11.48-5,22.12-9.94,33.02-15.55.89-.46,3.42-.28,5.23-1.26,4.12-2.22,6.37-6.31,10.77-6.74,1.21,3.38,1.65,10.38,1,14-.55,3.05-2.95,9.34-4,14-.89,3.95-5,16.04-5,18.5v15c0,.12,1.45,2,2,1.01,11.99-12.23,18.19-28.7,24-44.51,1.1-3,1.26-5.8,2-8,2.11-6.28,6.41-12.96,7-20,.41-.02,6.69-3.54,7.27-3.96,1.55-1.13,1.68-4.24,4.73-4.04.4.88,5.23,3.47,4,7-2.06,3.48-1.6,10.16-2,14-.19,1.81-2.32,15.97-.5,16.01,3.09-4.92,4.04-10.36,4.5-16.01,2.97-.56,6.34-6.43,7.22-9.27.99-3.21.27-5.48.78-7.73.08-.35,2.76-3.92,3-4,2.83-1.02,11.96.74,16-1,3.48.67,4.36,9.25,6,12-.13.94.2,2.16,0,3-.86,3.63-2.27,14.82-.1,17.59,1.83,2.33,10.39.79,12.45-.5,1.11-.69,6.52-15.72,7.77-18.47,2.27-4.98,4.21-6.63,5.88-12.62.13-.46,1.04-1.2,1-2,1.42-.53,1.94-2.13,3-3,1.4-1.15,2.03-2.13,3-3,8.42-7.59,22.19-22.79,34.03-12.53,3.22,2.79,3.78,4.35,3.97,8.53ZM680.75,568.51c-7.92.55-15.85,7.72-20.96,13.52-6.5,7.37-14.02,18.48-14.02,28.47,1.69.34,2.64-.85,3.89-1.6,7.39-4.46,26.94-28.65,30.32-36.68.53-1.25,1.06-2.29.78-3.71Z"/>
      <path class="st9" d="M723.76,619.5h-1c.11-.62-.07-1.36,0-2,1.17-.14,2.32-.92,3-1-.09,1.25-1.71,2.31-2,3Z"/>
      <path class="st14" d="M427.76,658.5c25.71,7.27,1.59,38.73-11.85,19.35-4-5.77-1.51-9.47-.15-15.35,3.9-1.41,8.32-2.64,12-4Z"/>
      <path class="st6" d="M451.48,659.69c13.13-2.91,23.55,13.93,9.23,23.26s-27.26-19.27-9.23-23.26Z"/>
      <path class="st14" d="M439.76,640.5c.07,1.07-.89,2.78-1,4-6.6,2.44-13.46,4.54-20,7-.66-5.69-3.76-10.7-.87-16.37,3.81-7.46,21.33-3.42,21.87,5.37Z"/>
      <path class="st14" d="M409.76,665.5c3.83,6.52.59,16.26-6.26,19.24-7.22,3.15-12.31-3.45-11.74-10.24.17-2.09,3.41-5.19,5.3-6.2,4.34-2.33,9.28-1.64,12.7-2.8Z"/>
      <path class="st14" d="M489.76,622.5c-.05,2.66-6.1,4.73-8.74,5.76s-6.01,1.39-8.26,2.24c-9.78-15.73,17.33-23.94,17-8Z"/>
      <path class="st6" d="M542.76,598.5c-4.4.43-6.65,4.52-10.77,6.74-1.81.98-4.34.8-5.23,1.26-8.68-4.34-.24-15.84,6.53-16.08,4.21-.15,8.15,4.4,9.47,8.08Z"/>
      <path class="st2" d="M553.76,613.5c.1.06.87,1.68,1,2,4.5,11.08-6.39,13.64-15,11,1.05-4.66,3.45-10.95,4-14,2.28.03,8.3,0,10,1Z"/>
      <path class="st14" d="M595.76,584.5c-.51,2.25.21,4.51-.78,7.73-.88,2.84-4.25,8.72-7.22,9.27-1.18.22-2.73-.15-4,0,.4-3.84-.06-10.52,2-14,1.76-2.97,6.82-3.45,10-3Z"/>
      <path class="st6" d="M455.76,636.5c-6.45,2.81-9.11,5.08-17,8,.11-1.22,1.07-2.93,1-4,8.08-.37,4.69-1.77,6.51-5.98,2.11-4.88,9.69-3.92,9.49,1.98Z"/>
      <path class="st14" d="M562.76,608.5c-.74,2.2-.9,5-2,8l-6-1c-.13-.32-.9-1.94-1-2,.36-6.63,4.1-13.08,9-5Z"/>
      <path class="st6" d="M461.76,645.5c.79,3.46-1.15,9.6-4.52,10.99-2.97,1.23-1.74-7.22-3.48-7.99,2.65-1,5.37-1.99,8-3Z"/>
      <path class="st6" d="M406.76,657.5c-.83,4.63-7.28,5.32-11,4.99,1.37-3.33,4.88-4.06,8-4.99.8-.24,2.25.25,3,0Z"/>
      <path class="st9" d="M560.76,616.5c-5.81,15.81-12.01,32.28-24,44.51-.55.99-2-.89-2-1.01v-15c0-2.46,4.11-14.55,5-18.5,8.61,2.64,19.5.08,15-11l6,1Z"/>
      <path class="st9" d="M680.75,568.51c.28,1.42-.25,2.46-.78,3.71-3.38,8.03-22.93,32.22-30.32,36.68-1.25.75-2.2,1.94-3.89,1.6,0-9.98,7.53-21.1,14.02-28.47,5.12-5.8,13.05-12.97,20.96-13.52Z"/>
      <path class="st9" d="M587.76,601.5c-.46,5.65-1.41,11.09-4.5,16.01-1.82-.05.31-14.2.5-16.01,1.27-.15,2.82.22,4,0Z"/>
      <path class="st9" d="M653.76,572.5c-.97.87-1.6,1.85-3,3l-1-2.99h4Z"/>
      <path class="st9" d="M647.76,578.5c.04.8-.87,1.54-1,2-6.31-1.6-.27-1.53,1-2Z"/>
      <path class="st7" d="M688.76,585.5l1-2c-.26,1.66-.98,1.89-1,2Z"/>
    </g>
  </g>
  <path class="st0" d="M253.76,474.5l41.88,6.12c-2.53,19.54-2.73,39.36.13,58.88l-41.43,5.88c-1.24-.42-1.33-1.3-1.55-2.42-.8-4.13-1.75-11.31-2.03-15.47-1.22-18.14.39-35.22,3-53Z"/>
  <path class="st0" d="M334.76,387.5c.18-.2,2.01-.07,2.44-1.02l10.04-11.96c3.92,5.99,21.7,16.79,24.06,22,.39.85.65,1.26.36,2.27-.82,2.91-9.53,12.83-11.83,16.49-1.62,2.57-2.74,5.97-4.06,8.22-.21.36-1.49,1.01-2.2,2.26-1.96,3.45-3.32,7.37-5.35,10.77l-32.46-14.05c4.37-11.64,12.24-21.48,18.47-32.06.63-1.08.33-2.55.54-2.92-8.73,9.48-14.61,21.65-20.64,33.08l-38.44-17.72c-.74-3.49,11.91-23.96,14.66-28.28s19.94-29.47,23.05-30.01l31.29,28.56c-3.69,4.99-6.85,9.01-9.93,14.36Z"/>
  <path class="st0" d="M253.76,472.5c3.68-23.42,9.73-46.83,20.49-67.99l38.51,18c-6.42,15.06-11.43,29.67-14.73,45.77-.44,2.16.08,4.59-.28,6.21-.14.61-1.9,3.7-2.57,3.88l-41.43-5.88Z"/>
  <path class="st0" d="M440.67,310.41c-7.89,2.74-15.97,5.48-23.59,8.92-8.76,3.96-17.04,9.45-25.64,13.08l-23.67-35.34c18.58-13.3,40.32-21.6,61.97-28.58l10.93,41.91Z"/>
  <path class="st0" d="M498.76,258.5v41.5l-55.91,8.41-11.11-40.39c21.6-6.59,44.32-9.91,67.02-9.52Z"/>
  <path class="st0" d="M500.76,258.5c1.15-1.15,28.27,1.58,32.36,2.14,4.32.6,34.09,6.04,34.59,8.43l-11.97,40.43c-17.91-4.68-36.32-8.37-54.97-8v-43Z"/>
  <path class="st0" d="M557.75,310.47l12.03-40.97c2.66-1.98,54.95,21.21,59.83,27.63l-22.5,35.31c-16-7.69-31.84-17.11-49.36-21.97Z"/>
  <path class="st0" d="M469.76,341.5c-5.76,1.09-11.37,2.38-16.99,4.01l-7.92-33.91c10.91-3.27,22.18-5.74,33.53-6.97,2.68-.29,20.38-2.63,20.38.38v35.5c-4.65-.04-9.35.06-14,0-7.02-.09-7.66-.39-15,1Z"/>
  <path class="st0" d="M500.76,765.5v-45c19.44-.73,38.9-2.88,57.43-8.94l12.64,41.48c.05.88,0,1.76-.51,2.51-3.27,4.8-60.74,11.92-69.55,9.95Z"/>
  <path class="st0" d="M295.62,541.63c2.25,11.01,4.19,22.13,7.64,32.86,2.51,7.82,6.51,14.95,8.43,22.93l-38.85,17c-8.83-21.41-15.9-43.77-19-66.85l41.79-5.94Z"/>
  <path class="st0" d="M333.76,485.5c-3.3,15.88-1.33,31.91-1.05,47.95l-34.87,4.97c-3.34-19.08-2.6-38.79-.08-57.92l36,5.01Z"/>
  <path class="st0" d="M373.76,556.5c.67,2.29,2.34,9.1,1.02,10.5l-60.42,28.43c-9.74-16.53-13.47-36.12-16.6-54.92l35.93-4.93c2.48,15.04,6.86,29.65,12.08,43.92l.76-3.25c-2.22-4.89-12.67-39.9-10.77-41.73l30.91-3.91c1.35,8.11,3.41,16.03,5.59,23.94.28,1.01,1.43,1.71,1.5,1.96Z"/>
  <path class="st0" d="M743.72,468.46l-42.96,7.05c-2.91-18.7-9.19-36.44-15.99-53.96l39.01-18.62c10.6,20.35,16.7,42.83,19.94,65.54Z"/>
  <path class="st0" d="M702.76,500.5c.44-7.74-.84-15.38-2-22.99l42.46-7.02c1.61-.03,4.15,27.14,3.55,30.02-14.65-.08-29.35,0-44,0Z"/>
  <path class="st0" d="M665.76,500.5l-2-18c12.11-.43,23.85-4.49,36.01-4.01l1.99,22.01c-11.99,0-24.01.01-36,0Z"/>
  <path class="st0" d="M746.76,502.5c-.3,7.12.41,14.37,0,21.49-.24,4.06-.99,13.44-2.04,16.96-.31,1.04-.2,2.01-1.53,2.47l-41.43-7.91,2.01-33h43Z"/>
  <path class="st0" d="M665.76,502.5c11.99-.06,24.02.05,36.01,0,.11,10.5.12,21.46-1.94,31.59-1.95,1.41-30.32-6.02-35.4-5.57-1.19-.32-.49-1.73-.66-2.01,1.41-7.89,2.17-15.99,2-24Z"/>
  <path class="st3" d="M662.76,530.5c-.08,8.51-2.28,17.21-5.5,25.01-2-.06,5.85-22.67,4.5-25.01.32.06.68-.06,1,0Z"/>
  <path class="st3" d="M633.24,411.03c1.32,1.81,3.1,3.61,3.73,5.72,1.32,3.03-.38,1.2-1.18.21-3.5-4.31-6.59-9.72-9.54-14.45,3.21,1.9,4.71,5.38,6.99,8.51Z"/>
  <path class="st9" d="M641.67,422.59c.2.13,1.32,3.61,1.08,3.91l-3.99-3.01c-.41-1.59,2.48-1.17,2.91-.9Z"/>
  <path class="st3" d="M638.26,419.5c.65.33.65.67,0,1v-1Z"/>
  <path class="st3" d="M634.76,574.49c-2.38.53-3.6-1.34-5.32-2.17-1.41-.68-4.39-1.34-4.68-2.81,3.12,1.12,7.83,2.35,9.99,4.98Z"/>
  <rect class="st9" x="652.76" y="563.51" width="1.99" height="2.99"/>
  <path class="st9" d="M653.75,567.51c1.09,1.09-.9,3.08-1.99,1.99s.9-3.08,1.99-1.99Z"/>
  <path class="st3" d="M655.75,562.5h-.98c-.5-4.16,1.48-4.16.98,0Z"/>
  <path class="st3" d="M656.74,558.49c-.35.68-1.7-.59-.98-1.99.35-.68,1.7.59.98,1.99Z"/>
  <path class="st3" d="M636.26,574.5c.65.33.65.67,0,1v-1Z"/>
  <path class="st9" d="M640.26,577.5c.65.33.65.67,0,1v-1Z"/>
  <path class="st9" d="M408.76,362.5c-.23-1.39-2.05-2.55-2.36-3.01-.95-1.43-1.05-2.65.85-1.99.8.28,2.19,3.88,2.51,5.01h-1Z"/>
  <path class="st1" d="M397.75,342.5c-1.55,2.27,3.42,3.49,2,4.99s-6.59-6.17-2-4.99Z"/>
  <path class="st1" d="M401.74,348.5c.25.27,1.7,5.78,2.52,6.98-.76-1.61-4.04-4.42-4.5-5.49-.75-1.75,1.55-1.96,1.98-1.49Z"/>
  <path class="st1" d="M395.75,339.51c1.09,1.09-.9,3.08-1.99,1.99s.9-3.08,1.99-1.99Z"/>
  <path class="st7" d="M622.75,626.5c.52,2.42-.4,2.54-1.64,3.85-3.7,3.94-8.83,8.38-12.86,12.12,3.04-6.45,10.23-10.13,14.5-15.98Z"/>
  <path class="st7" d="M606.75,642.51c1.02,1.04-1.99,4.01-2.99,2.99s1.99-4.01,2.99-2.99Z"/>
  <path class="st7" d="M598.75,648.51c1.09,1.09-.9,3.08-1.99,1.99s.9-3.08,1.99-1.99Z"/>
  <path class="st7" d="M602.75,645.51c1.09,1.09-.9,3.08-1.99,1.99s.9-3.08,1.99-1.99Z"/>
  <path class="st7" d="M706.75,602.49c-2.1.15-4-.88-5.81-1.73-1.4-.66-2.74.61-2.19-2.26,2.66.59,6.66,1.32,7.99,3.99Z"/>
  <path class="st7" d="M680.76,608.5c-5.73,12.01-13.2,23.36-20.43,34.1-.6.85-2.11.61-2.57.9,5.91-9.28,12.75-17.72,18.18-27.32,2.03-3.6.67-5.97,4.82-7.68Z"/>
</svg>